<?xml version="1.0" encoding="UTF-8" standalone="no"?>
<svg
   xmlns:dc="http://purl.org/dc/elements/1.1/"
   xmlns:cc="http://creativecommons.org/ns#"
   xmlns:rdf="http://www.w3.org/1999/02/22-rdf-syntax-ns#"
   xmlns:svg="http://www.w3.org/2000/svg"
   xmlns="http://www.w3.org/2000/svg"
   xmlns:sodipodi="http://sodipodi.sourceforge.net/DTD/sodipodi-0.dtd"
   xmlns:inkscape="http://www.inkscape.org/namespaces/inkscape"
   enable-background="new 0 0 24 24"
   height="128"
   viewBox="0 0 128 128"
   width="128"
   fill="#000000"
   version="1.1"
   id="svg10"
   sodipodi:docname="icon_dead.svg"
   inkscape:version="1.0.2 (e86c870879, 2021-01-15)">
  <metadata
     id="metadata16">
    <rdf:RDF>
      <cc:Work
         rdf:about="">
        <dc:format>image/svg+xml</dc:format>
        <dc:type
           rdf:resource="http://purl.org/dc/dcmitype/StillImage" />
        <dc:title></dc:title>
      </cc:Work>
    </rdf:RDF>
  </metadata>
  <defs
     id="defs14" />
  <sodipodi:namedview
     pagecolor="#ffffff"
     bordercolor="#666666"
     borderopacity="1"
     objecttolerance="10"
     gridtolerance="10"
     guidetolerance="10"
     inkscape:pageopacity="0"
     inkscape:pageshadow="2"
     inkscape:window-width="1920"
     inkscape:window-height="1043"
     id="namedview12"
     showgrid="false"
     inkscape:zoom="2.203125"
     inkscape:cx="-97.05722"
     inkscape:cy="56.580376"
     inkscape:window-x="0"
     inkscape:window-y="0"
     inkscape:window-maximized="1"
     inkscape:current-layer="svg10"
     inkscape:document-rotation="0" />
  <g
     id="g4">
    <rect
       fill="none"
       height="24"
       width="24"
       id="rect2"
       x="0"
       y="0" />
  </g>
  <g
     id="g8"
     transform="matrix(5.5555556,0,0,5.5555556,-2.6666672,-2.6666672)"
     style="fill:#ffffff;fill-opacity:1">
    <path
       d="M 16.5,3 C 15.54,3 14.6,3.25 13.77,3.69 L 12,9 h 3 l -3,10 1,-9 H 10 L 11.54,4.61 C 10.47,3.61 9.01,3 7.5,3 4.42,3 2,5.42 2,8.5 2,12.63 6.16,15.68 12,21 17.47,16.06 22,12.74 22,8.5 22,5.42 19.58,3 16.5,3 Z"
       id="path6"
       style="fill:#ffffff;fill-opacity:1" />
  </g>
</svg>
