<?xml version="1.0" encoding="UTF-8" standalone="no"?>
<svg
   height="128"
   viewBox="0 0 128 128"
   width="128"
   fill="#000000"
   version="1.1"
   id="svg6"
   sodipodi:docname="icon_help.svg"
   inkscape:version="1.1.1 (3bf5ae0d25, 2021-09-20)"
   xmlns:inkscape="http://www.inkscape.org/namespaces/inkscape"
   xmlns:sodipodi="http://sodipodi.sourceforge.net/DTD/sodipodi-0.dtd"
   xmlns="http://www.w3.org/2000/svg"
   xmlns:svg="http://www.w3.org/2000/svg"
   xmlns:rdf="http://www.w3.org/1999/02/22-rdf-syntax-ns#"
   xmlns:cc="http://creativecommons.org/ns#"
   xmlns:dc="http://purl.org/dc/elements/1.1/">
  <metadata
     id="metadata12">
    <rdf:RDF>
      <cc:Work
         rdf:about="">
        <dc:format>image/svg+xml</dc:format>
        <dc:type
           rdf:resource="http://purl.org/dc/dcmitype/StillImage" />
      </cc:Work>
    </rdf:RDF>
  </metadata>
  <defs
     id="defs10" />
  <sodipodi:namedview
     pagecolor="#ffffff"
     bordercolor="#666666"
     borderopacity="1"
     objecttolerance="10"
     gridtolerance="10"
     guidetolerance="10"
     inkscape:pageopacity="0"
     inkscape:pageshadow="2"
     inkscape:window-width="2560"
     inkscape:window-height="1003"
     id="namedview8"
     showgrid="false"
     inkscape:zoom="1.5578446"
     inkscape:cx="-233.33521"
     inkscape:cy="39.477621"
     inkscape:window-x="0"
     inkscape:window-y="309"
     inkscape:window-maximized="1"
     inkscape:current-layer="svg6"
     inkscape:document-rotation="0"
     inkscape:pagecheckerboard="0" />
  <g
     aria-label="?"
     id="text2298"
     style="font-style:italic;font-weight:bold;font-size:107.189px;line-height:1.25;font-family:Rubik;-inkscape-font-specification:'Rubik Bold Italic';opacity:1;vector-effect:none;fill:#dbdbdb;stroke:#000000;stroke-width:2;stop-color:#000000;stop-opacity:1;font-variation-settings:normal;fill-opacity:1;stroke-linecap:butt;stroke-linejoin:miter;stroke-miterlimit:4;stroke-dasharray:none;stroke-dashoffset:0;stroke-opacity:1;-inkscape-stroke:none">
    <path
       d="m 58.357266,80.721482 q -0.857512,0 -1.500646,-0.643134 -0.643134,-0.643134 -0.643134,-1.500646 0,-0.750323 0,-1.500646 0,-0.750323 0,-1.500646 0.535945,-3.965993 2.358158,-7.074474 1.929402,-3.215671 4.394749,-5.895396 2.572536,-2.679725 5.037883,-4.930694 2.465347,-2.358158 4.180371,-4.716316 1.715024,-2.358158 1.822213,-4.716316 0.321567,-2.786914 -1.07189,-4.609127 -1.286268,-1.929402 -3.644426,-2.894103 -2.250969,-1.07189 -4.823505,-1.07189 -4.716316,0 -7.610419,2.358158 -2.786914,2.250969 -3.858804,6.967285 -0.428756,1.179079 -1.179079,1.822213 -0.750323,0.643134 -2.036591,0.643134 H 38.634489 q -0.964701,0 -1.715024,-0.750323 -0.750323,-0.750323 -0.750323,-1.929402 0.107189,-4.28756 2.036591,-8.360742 1.929403,-4.073182 5.681018,-7.288852 3.751615,-3.32286 9.111065,-5.252262 5.35945,-1.929402 12.433924,-1.929402 7.717608,0 12.755492,1.929402 5.145072,1.929402 8.146364,5.037884 3.108481,3.001292 4.394749,6.538529 1.286268,3.430048 1.07189,6.538529 -0.107189,3.965993 -1.715024,7.181663 -1.500646,3.108481 -3.751615,5.788206 -2.14378,2.679725 -4.609127,5.252261 -2.358158,2.465348 -4.28756,5.037884 -1.822213,2.572536 -2.679726,5.35945 -0.214378,0.857512 -0.428756,1.715024 -0.107189,0.750323 -0.214378,1.607835 -0.535945,1.393457 -1.179079,2.14378 -0.643134,0.643134 -1.929402,0.643134 z m 0,21.330608 q -1.179079,0 -1.929402,-0.75032 -0.750323,-0.75032 -0.750323,-1.929402 v -10.7189 q 0,-1.07189 0.750323,-1.822213 0.750323,-0.857512 1.929402,-0.857512 h 12.005168 q 1.07189,0 1.822213,0.857512 0.857512,0.750323 0.857512,1.822213 v 10.7189 q 0,1.179082 -0.857512,1.929402 -0.750323,0.75032 -1.822213,0.75032 z"
       style="font-style:normal;font-weight:600;-inkscape-font-specification:'Rubik Semi-Bold';font-variation-settings:normal;vector-effect:none;fill:#dbdbdb;fill-opacity:1;stroke:#000000;stroke-width:2;stroke-linecap:butt;stroke-linejoin:miter;stroke-miterlimit:4;stroke-dasharray:none;stroke-dashoffset:0;stroke-opacity:1;-inkscape-stroke:none;stop-color:#000000;stop-opacity:1"
       id="path17264" />
  </g>
</svg>
