<?xml version="1.0" encoding="UTF-8" standalone="no"?>
<svg
   inkscape:export-ydpi="94.523254"
   inkscape:export-xdpi="94.523254"
   inkscape:export-filename="/home/ehmprah/dev/paint-it-black/assets/highlight.png"
   sodipodi:docname="icon_material.svg"
   inkscape:version="1.1.1 (3bf5ae0d25, 2021-09-20)"
   id="svg8"
   version="1.1"
   viewBox="0 0 33.866666 33.866668"
   height="128"
   width="128"
   xmlns:inkscape="http://www.inkscape.org/namespaces/inkscape"
   xmlns:sodipodi="http://sodipodi.sourceforge.net/DTD/sodipodi-0.dtd"
   xmlns="http://www.w3.org/2000/svg"
   xmlns:svg="http://www.w3.org/2000/svg"
   xmlns:rdf="http://www.w3.org/1999/02/22-rdf-syntax-ns#"
   xmlns:cc="http://creativecommons.org/ns#"
   xmlns:dc="http://purl.org/dc/elements/1.1/">
  <defs
     id="defs2">
    <inkscape:path-effect
       effect="fill_between_many"
       method="originald"
       linkedpaths="#rect3263,0,1"
       id="path-effect2046" />
    <inkscape:path-effect
       effect="fill_between_many"
       method="originald"
       linkedpaths="#rect3263,0,1|#path2048,0,1|#text2432,0,1"
       id="path-effect2870" />
  </defs>
  <sodipodi:namedview
     id="base"
     pagecolor="#999999"
     bordercolor="#666666"
     borderopacity="1.0"
     inkscape:pageopacity="0"
     inkscape:pageshadow="2"
     inkscape:zoom="2.234568"
     inkscape:cx="-196.2348"
     inkscape:cy="45.42265"
     inkscape:document-units="mm"
     inkscape:current-layer="layer1"
     inkscape:document-rotation="0"
     showgrid="true"
     units="px"
     inkscape:window-width="2560"
     inkscape:window-height="1003"
     inkscape:window-x="0"
     inkscape:window-y="309"
     inkscape:window-maximized="1"
     inkscape:pagecheckerboard="0">
    <inkscape:grid
       type="xygrid"
       id="grid7161"
       dotted="true"
       spacingx="2.1166667"
       spacingy="2.1166667" />
  </sodipodi:namedview>
  <metadata
     id="metadata5">
    <rdf:RDF>
      <cc:Work
         rdf:about="">
        <dc:format>image/svg+xml</dc:format>
        <dc:type
           rdf:resource="http://purl.org/dc/dcmitype/StillImage" />
      </cc:Work>
    </rdf:RDF>
  </metadata>
  <g
     inkscape:label="Layer 1"
     inkscape:groupmode="layer"
     id="layer1"
     style="display:inline">
    <path
       inkscape:path-effect="#path-effect2870"
       inkscape:original-d="M 0,0"
       d="M -51.301173,1.8453448 Z"
       id="path2872" />
    <g
       aria-label="K"
       id="text2432"
       style="font-style:italic;font-weight:bold;font-size:37.1596px;line-height:1.25;font-family:Rubik;-inkscape-font-specification:'Rubik Bold Italic';stroke-width:0.199069" />
    <path
       inkscape:path-effect="#path-effect2046"
       inkscape:original-d="M -51.301173,1.8453448"
       d="M -51.301173,1.8453448"
       id="path2048" />
    <path
       id="path3398"
       style="font-variation-settings:normal;opacity:1;vector-effect:none;fill:#dbdbdb;fill-opacity:1;stroke:#000000;stroke-width:1.82861;stroke-linecap:butt;stroke-linejoin:miter;stroke-miterlimit:4;stroke-dasharray:none;stroke-dashoffset:0;stroke-opacity:1;-inkscape-stroke:none;paint-order:stroke fill markers;stop-color:#000000;stop-opacity:1"
       d="M 91.941406 19.011719 C 89.560137 19.025412 87.261755 19.363484 85.410156 21.111328 C 76.634762 29.889862 67.919681 38.72978 59.177734 47.542969 L 57.072266 47.542969 C 58.587788 40.513531 60.103618 33.484516 61.619141 26.455078 C 61.84951 24.103885 63.863789 20.777467 61.076172 19.28125 C 56.878326 18.788626 52.576385 19.183504 48.335938 19.056641 C 45.434455 19.271456 41.287582 18.060339 39.96875 21.591797 C 38.107999 30.238875 36.263704 38.890944 34.423828 47.542969 L 24.285156 47.542969 C 21.882004 47.69971 21.922386 50.497895 21.152344 52.173828 C 20.948185 53.86867 18.569109 56.712377 20.957031 57.482422 L 32.3125 57.482422 C 31.463625 61.48374 30.613692 65.484807 29.765625 69.486328 L 20.628906 69.486328 C 18.225751 69.643065 18.264183 72.44125 17.494141 74.117188 C 17.289982 75.81203 14.910906 78.65574 17.298828 79.425781 L 27.65625 79.425781 C 26.000599 87.234828 24.347511 95.044505 22.683594 102.85156 C 22.043662 105.04467 21.224717 108.87851 24.640625 108.94336 L 36.128906 108.94336 C 39.044239 108.72118 43.221614 109.96668 44.496094 106.35938 C 46.515465 97.397083 48.422604 88.407071 50.365234 79.425781 L 54.570312 79.425781 L 67.845703 101.55273 C 69.669246 103.9964 70.484818 107.61388 73.564453 108.75 C 79.148951 109.17142 84.787852 108.8353 90.394531 108.94336 C 93.072043 109.39054 97.914636 108.3638 96.035156 104.70508 C 91.042501 96.278322 86.050699 87.852011 81.058594 79.425781 L 101.95117 79.425781 C 104.77513 79.902066 105.20267 76.753945 105.88867 74.794922 C 106.09273 73.10008 108.47191 70.256369 106.08398 69.486328 L 75.169922 69.486328 C 74.035868 67.572192 72.901695 65.658338 71.767578 63.744141 L 77.869141 57.482422 L 105.60938 57.482422 C 108.43333 57.958707 108.85892 54.810586 109.54492 52.851562 C 109.74898 51.156721 112.13011 48.313013 109.74219 47.542969 L 87.556641 47.542969 L 108.94531 25.595703 C 110.80752 24.062373 113.61464 20.794236 110.33008 19.152344 C 106.05666 18.935112 101.75936 19.115344 97.476562 19.056641 C 95.695823 19.186743 93.793505 19.001069 91.941406 19.011719 z "
       transform="scale(0.26458333)" />
  </g>
</svg>
