<?xml version="1.0" encoding="UTF-8" standalone="no"?>
<svg
   xmlns:dc="http://purl.org/dc/elements/1.1/"
   xmlns:cc="http://creativecommons.org/ns#"
   xmlns:rdf="http://www.w3.org/1999/02/22-rdf-syntax-ns#"
   xmlns:svg="http://www.w3.org/2000/svg"
   xmlns="http://www.w3.org/2000/svg"
   xmlns:sodipodi="http://sodipodi.sourceforge.net/DTD/sodipodi-0.dtd"
   xmlns:inkscape="http://www.inkscape.org/namespaces/inkscape"
   width="256"
   height="256"
   viewBox="0 0 67.733332 67.733332"
   version="1.1"
   id="svg8"
   inkscape:version="1.0.2 (e86c870879, 2021-01-15)"
   sodipodi:docname="icon_menu.svg">
  <style
     id="style10" />
  <defs
     id="defs2" />
  <sodipodi:namedview
     id="base"
     pagecolor="#ffffff"
     bordercolor="#666666"
     borderopacity="1.0"
     inkscape:pageopacity="0.0"
     inkscape:pageshadow="2"
     inkscape:zoom="1.4"
     inkscape:cx="-68.767728"
     inkscape:cy="178.45756"
     inkscape:document-units="mm"
     inkscape:current-layer="layer1"
     inkscape:document-rotation="0"
     showgrid="false"
     units="px"
     inkscape:window-width="2560"
     inkscape:window-height="1003"
     inkscape:window-x="1920"
     inkscape:window-y="0"
     inkscape:window-maximized="1">
    <inkscape:grid
       dotted="true"
       type="xygrid"
       id="grid12" />
    <sodipodi:guide
       position="0,67.733332"
       orientation="0,256"
       id="guide22" />
    <sodipodi:guide
       position="67.733332,67.733332"
       orientation="256,0"
       id="guide24" />
    <sodipodi:guide
       position="67.733332,0"
       orientation="0,-256"
       id="guide26" />
    <sodipodi:guide
       position="0,0"
       orientation="-256,0"
       id="guide28" />
  </sodipodi:namedview>
  <metadata
     id="metadata5">
    <rdf:RDF>
      <cc:Work
         rdf:about="">
        <dc:format>image/svg+xml</dc:format>
        <dc:type
           rdf:resource="http://purl.org/dc/dcmitype/StillImage" />
        <dc:title></dc:title>
      </cc:Work>
    </rdf:RDF>
  </metadata>
  <g
     inkscape:label="Layer 1"
     inkscape:groupmode="layer"
     id="layer1">
    <path
       d="m 33.866668,19.964095 c 3.823212,0 6.951291,-3.128079 6.951291,-6.951292 0,-3.8232152 -3.128079,-6.9512947 -6.951291,-6.9512947 -3.823214,0 -6.951294,3.1280795 -6.951294,6.9512947 0,3.823213 3.12808,6.951292 6.951294,6.951292 z m 0,6.951281 c -3.823214,0 -6.951294,3.12808 -6.951294,6.951292 0,3.823214 3.12808,6.951293 6.951294,6.951293 3.823212,0 6.951291,-3.128079 6.951291,-6.951293 0,-3.823212 -3.128079,-6.951292 -6.951291,-6.951292 z m 0,20.853864 c -3.823214,0 -6.951294,3.12808 -6.951294,6.951294 0,3.823212 3.12808,6.951291 6.951294,6.951291 3.823212,0 6.951291,-3.128079 6.951291,-6.951291 0,-3.823214 -3.128079,-6.951294 -6.951291,-6.951294 z"
       id="path841-3"
       style="fill:#dbdbdb;fill-opacity:1;stroke:#000000;stroke-width:0.52916667;stroke-miterlimit:4;stroke-dasharray:none;stroke-opacity:1" />
  </g>
  <style
     id="style837" />
  <style
     id="style837-3" />
  <style
     id="style10-7" />
  <style
     id="style837-0" />
  <style
     id="style837-3-9" />
</svg>
