<?xml version="1.0" encoding="UTF-8" standalone="no"?>
<svg
   height="128"
   viewBox="0 0 128 128"
   width="128"
   fill="#000000"
   version="1.1"
   id="svg6"
   sodipodi:docname="icon_search.svg"
   inkscape:version="1.1.1 (3bf5ae0d25, 2021-09-20)"
   xmlns:inkscape="http://www.inkscape.org/namespaces/inkscape"
   xmlns:sodipodi="http://sodipodi.sourceforge.net/DTD/sodipodi-0.dtd"
   xmlns="http://www.w3.org/2000/svg"
   xmlns:svg="http://www.w3.org/2000/svg">
  <defs
     id="defs10" />
  <sodipodi:namedview
     id="namedview8"
     pagecolor="#ffffff"
     bordercolor="#666666"
     borderopacity="1.0"
     inkscape:pageshadow="2"
     inkscape:pageopacity="0.0"
     inkscape:pagecheckerboard="0"
     showgrid="false"
     inkscape:zoom="3.049398"
     inkscape:cx="6.7226384"
     inkscape:cy="79.851827"
     inkscape:window-width="2560"
     inkscape:window-height="1003"
     inkscape:window-x="0"
     inkscape:window-y="395"
     inkscape:window-maximized="1"
     inkscape:current-layer="svg6" />
  <path
     d="M 0,0 H 24 V 24 H 0 Z"
     fill="none"
     id="path2" />
  <path
     d="M 83.981944,75.99981 H 79.77802 l -1.489998,-1.436785 c 5.214994,-6.066421 8.354633,-13.942127 8.354633,-22.509618 0,-19.103908 -15.48534,-34.589248 -34.589248,-34.589248 -19.103908,0 -34.589248,15.48534 -34.589248,34.589248 0,19.103908 15.48534,34.589248 34.589248,34.589248 8.567491,0 16.443197,-3.139639 22.509618,-8.354633 l 1.436785,1.489998 v 4.203924 l 26.60711,26.553896 7.92892,-7.92892 z m -31.928537,0 c -13.250343,0 -23.946403,-10.69606 -23.946403,-23.946403 0,-13.250343 10.69606,-23.946403 23.946403,-23.946403 13.250343,0 23.946403,10.69606 23.946403,23.946403 0,13.250343 -10.69606,23.946403 -23.946403,23.946403 z"
     id="path4"
     style="stroke-width:2;font-variation-settings:normal;opacity:1;vector-effect:none;fill:#dbdbdb;fill-opacity:1;stroke:#000000;stroke-linecap:butt;stroke-linejoin:miter;stroke-miterlimit:4;stroke-dasharray:none;stroke-dashoffset:0;stroke-opacity:1;-inkscape-stroke:none;stop-color:#000000;stop-opacity:1" />
</svg>
