<?xml version="1.0" encoding="UTF-8" standalone="no"?>
<svg
   xmlns:dc="http://purl.org/dc/elements/1.1/"
   xmlns:cc="http://creativecommons.org/ns#"
   xmlns:rdf="http://www.w3.org/1999/02/22-rdf-syntax-ns#"
   xmlns:svg="http://www.w3.org/2000/svg"
   xmlns="http://www.w3.org/2000/svg"
   xmlns:sodipodi="http://sodipodi.sourceforge.net/DTD/sodipodi-0.dtd"
   xmlns:inkscape="http://www.inkscape.org/namespaces/inkscape"
   width="128"
   height="128"
   viewBox="0 0 128 128"
   version="1.1"
   id="svg6"
   sodipodi:docname="twitter.svg"
   inkscape:version="1.0.2 (e86c870879, 2021-01-15)">
  <metadata
     id="metadata12">
    <rdf:RDF>
      <cc:Work
         rdf:about="">
        <dc:format>image/svg+xml</dc:format>
        <dc:type
           rdf:resource="http://purl.org/dc/dcmitype/StillImage" />
        <dc:title></dc:title>
      </cc:Work>
    </rdf:RDF>
  </metadata>
  <defs
     id="defs10" />
  <sodipodi:namedview
     pagecolor="#ffffff"
     bordercolor="#666666"
     borderopacity="1"
     objecttolerance="10"
     gridtolerance="10"
     guidetolerance="10"
     inkscape:pageopacity="0"
     inkscape:pageshadow="2"
     inkscape:window-width="2560"
     inkscape:window-height="1003"
     id="namedview8"
     showgrid="false"
     inkscape:zoom="2.203125"
     inkscape:cx="-127.59843"
     inkscape:cy="-0.23765975"
     inkscape:window-x="1920"
     inkscape:window-y="0"
     inkscape:window-maximized="1"
     inkscape:current-layer="svg6" />
  <path
     d="m 124.3798,28.127297 c -4.3805,1.953464 -8.07216,2.018041 -11.98448,0.0861 5.0478,-3.024371 5.27381,-5.150041 7.1035,-10.870515 -4.7249,2.809113 -9.95567,4.843299 -15.53083,5.946494 -4.439699,-4.746429 -10.795184,-7.722367 -17.82873,-7.722367 -13.507424,0 -24.45328,10.956618 -24.45328,24.453278 0,1.915794 0.215258,3.783156 0.635011,5.575176 C 42.006041,44.572988 23.983587,34.843339 11.923772,20.04437 9.8250093,23.649937 8.6141846,27.858225 8.6141846,32.340968 c 0,8.486537 4.3159174,15.966742 10.8705154,20.35262 -4.009175,-0.1453 -7.776185,-1.237733 -11.0696288,-3.067423 v 0.301361 c 0,11.849938 8.4273408,21.730268 19.6207428,23.979712 -3.594804,0.96866 -7.372577,1.130102 -11.058866,0.430514 3.121237,9.702744 12.145918,16.77396 22.844227,16.973074 -10.461526,8.20132 -23.436186,11.623914 -36.20097,10.117114 10.81132,6.96897 23.656826,11.00505 37.46561,11.00505 44.978104,0 69.571305,-37.261114 69.571305,-69.582063 0,-1.060145 -0.0161,-2.109526 -0.0646,-3.158908 4.77335,-3.444124 10.50996,-6.656845 13.78726,-11.570103 z"
     id="path2"
     style="stroke-width:5.38144;fill:#ffffff;fill-opacity:1" />
  <path
     fill="none"
     d="M 0,0 H 24 V 24 H 0 Z"
     id="path4" />
</svg>
