<?xml version="1.0" encoding="UTF-8" standalone="no"?>
<svg
   xmlns:dc="http://purl.org/dc/elements/1.1/"
   xmlns:cc="http://creativecommons.org/ns#"
   xmlns:rdf="http://www.w3.org/1999/02/22-rdf-syntax-ns#"
   xmlns:svg="http://www.w3.org/2000/svg"
   xmlns="http://www.w3.org/2000/svg"
   xmlns:sodipodi="http://sodipodi.sourceforge.net/DTD/sodipodi-0.dtd"
   xmlns:inkscape="http://www.inkscape.org/namespaces/inkscape"
   height="128"
   viewBox="0 0 128 128"
   width="128"
   fill="#000000"
   version="1.1"
   id="svg6"
   sodipodi:docname="icon_ladder.svg"
   inkscape:version="1.0.2 (e86c870879, 2021-01-15)">
  <metadata
     id="metadata12">
    <rdf:RDF>
      <cc:Work
         rdf:about="">
        <dc:format>image/svg+xml</dc:format>
        <dc:type
           rdf:resource="http://purl.org/dc/dcmitype/StillImage" />
        <dc:title></dc:title>
      </cc:Work>
    </rdf:RDF>
  </metadata>
  <defs
     id="defs10" />
  <sodipodi:namedview
     pagecolor="#ffffff"
     bordercolor="#666666"
     borderopacity="1"
     objecttolerance="10"
     gridtolerance="10"
     guidetolerance="10"
     inkscape:pageopacity="0"
     inkscape:pageshadow="2"
     inkscape:window-width="2560"
     inkscape:window-height="1003"
     id="namedview8"
     showgrid="false"
     inkscape:zoom="2.203125"
     inkscape:cx="-34.301583"
     inkscape:cy="116.542"
     inkscape:window-x="1920"
     inkscape:window-y="0"
     inkscape:window-maximized="1"
     inkscape:current-layer="svg6"
     inkscape:document-rotation="0" />
  <path
     d="M 0,0 H 24 V 24 H 0 Z"
     fill="none"
     id="path2" />
  <path
     d="M -26.811745,9.756271 H -5.0095033 V 126.03491 H -26.811745 Z m -87.208975,72.674148 h 21.802241 v 43.604491 h -21.802241 z m 43.604486,-36.337074 h 21.802244 v 79.941565 h -21.802244 z"
     id="path4"
     style="fill:#ffffff;fill-opacity:1;stroke-width:7.26742" />
  <path
     d="M 144.43593,57.129877 H 225.0891 V 137.78305 H 144.43593 Z"
     fill="none"
     id="path831"
     style="stroke-width:3.36055" />
  <path
     d="m 13.501642,90.578078 h 10.631222 v 2.657819 h -5.315603 v 5.31562 h 5.315603 v 2.657803 H 13.501642 v 5.31562 H 29.448484 V 85.262474 H 13.501642 Z m 5.315619,-47.840546 h 5.315603 V 21.475064 H 13.501642 v 5.315616 h 5.315619 z m -5.315619,15.946851 h 9.568114 l -9.568114,11.162788 v 4.784065 H 29.448484 V 69.315617 H 19.880385 L 29.448484,58.152822 V 53.368766 H 13.501642 Z M 40.079722,26.79068 V 37.421914 H 114.49836 V 26.79068 Z m 0,74.41864 H 114.49836 V 90.578078 H 40.079722 Z m 0,-31.893703 H 114.49836 V 58.684384 H 40.079722 Z"
     id="path833"
     style="fill:#dbdbdb;fill-opacity:1;stroke:#000000;stroke-width:1;stroke-miterlimit:4;stroke-dasharray:none;stroke-opacity:1" />
</svg>
