<?xml version="1.0" encoding="UTF-8" standalone="no"?>
<svg
   xmlns:dc="http://purl.org/dc/elements/1.1/"
   xmlns:cc="http://creativecommons.org/ns#"
   xmlns:rdf="http://www.w3.org/1999/02/22-rdf-syntax-ns#"
   xmlns:svg="http://www.w3.org/2000/svg"
   xmlns="http://www.w3.org/2000/svg"
   xmlns:sodipodi="http://sodipodi.sourceforge.net/DTD/sodipodi-0.dtd"
   xmlns:inkscape="http://www.inkscape.org/namespaces/inkscape"
   height="128"
   viewBox="0 0 128 128"
   width="128"
   fill="#000000"
   version="1.1"
   id="svg6"
   sodipodi:docname="icon_vault.svg"
   inkscape:version="1.0.2 (e86c870879, 2021-01-15)">
  <metadata
     id="metadata12">
    <rdf:RDF>
      <cc:Work
         rdf:about="">
        <dc:format>image/svg+xml</dc:format>
        <dc:type
           rdf:resource="http://purl.org/dc/dcmitype/StillImage" />
        <dc:title></dc:title>
      </cc:Work>
    </rdf:RDF>
  </metadata>
  <defs
     id="defs10" />
  <sodipodi:namedview
     pagecolor="#ffffff"
     bordercolor="#666666"
     borderopacity="1"
     objecttolerance="10"
     gridtolerance="10"
     guidetolerance="10"
     inkscape:pageopacity="0"
     inkscape:pageshadow="2"
     inkscape:window-width="2560"
     inkscape:window-height="1003"
     id="namedview8"
     showgrid="false"
     inkscape:zoom="2.203125"
     inkscape:cx="-153.27679"
     inkscape:cy="17.337336"
     inkscape:window-x="1920"
     inkscape:window-y="0"
     inkscape:window-maximized="1"
     inkscape:current-layer="svg6"
     inkscape:document-rotation="0" />
  <path
     d="M -51.869788,34.927582 H 50.742745 V 137.54011 H -51.869788 Z"
     fill="none"
     id="path831"
     style="stroke-width:4.27552" />
  <g
     id="g855"
     style="fill:#dbdbdb;fill-opacity:1;stroke:#000000;stroke-opacity:1;stroke-width:0.48400333;stroke-miterlimit:4;stroke-dasharray:none"
     transform="matrix(4.132203,0,0,4.132203,14.413564,14.413564)">
    <path
       d="M 21,10 H 12.65 C 11.83,7.67 9.61,6 7,6 3.69,6 1,8.69 1,12 c 0,3.31 2.69,6 6,6 2.61,0 4.83,-1.67 5.65,-4 H 13 l 2,2 2,-2 2,2 4,-4.04 z M 7,15 C 5.35,15 4,13.65 4,12 4,10.35 5.35,9 7,9 c 1.65,0 3,1.35 3,3 0,1.65 -1.35,3 -3,3 z"
       id="path853"
       style="fill:#dbdbdb;fill-opacity:1;stroke:#000000;stroke-opacity:1;stroke-width:0.48400333;stroke-miterlimit:4;stroke-dasharray:none" />
  </g>
</svg>
