<?xml version="1.0" encoding="UTF-8" standalone="no"?>
<svg
   xmlns:dc="http://purl.org/dc/elements/1.1/"
   xmlns:cc="http://creativecommons.org/ns#"
   xmlns:rdf="http://www.w3.org/1999/02/22-rdf-syntax-ns#"
   xmlns:svg="http://www.w3.org/2000/svg"
   xmlns="http://www.w3.org/2000/svg"
   xmlns:sodipodi="http://sodipodi.sourceforge.net/DTD/sodipodi-0.dtd"
   xmlns:inkscape="http://www.inkscape.org/namespaces/inkscape"
   id="Layer_1"
   viewBox="0 0 128 128"
   version="1.1"
   sodipodi:docname="icon_discord.svg"
   inkscape:version="1.0.2 (e86c870879, 2021-01-15)"
   width="128"
   height="128">
  <metadata
     id="metadata11">
    <rdf:RDF>
      <cc:Work
         rdf:about="">
        <dc:format>image/svg+xml</dc:format>
        <dc:type
           rdf:resource="http://purl.org/dc/dcmitype/StillImage" />
        <dc:title></dc:title>
      </cc:Work>
    </rdf:RDF>
  </metadata>
  <defs
     id="defs9">
    <clipPath
       id="clip0">
      <rect
         width="71"
         height="55"
         fill="#ffffff"
         id="rect844"
         x="0"
         y="0" />
    </clipPath>
  </defs>
  <sodipodi:namedview
     pagecolor="#ffffff"
     bordercolor="#666666"
     borderopacity="1"
     objecttolerance="10"
     gridtolerance="10"
     guidetolerance="10"
     inkscape:pageopacity="0"
     inkscape:pageshadow="2"
     inkscape:window-width="2560"
     inkscape:window-height="1003"
     id="namedview7"
     showgrid="false"
     inkscape:zoom="1.2462757"
     inkscape:cx="19.051871"
     inkscape:cy="145.09603"
     inkscape:window-x="1920"
     inkscape:window-y="0"
     inkscape:window-maximized="1"
     inkscape:current-layer="Layer_1"
     inkscape:document-rotation="0" />
  <path
     d="M 98.019495,32.789549 C 91.762565,29.918604 85.05295,27.803411 78.03763,26.591961 c -0.12776,-0.02337 -0.255377,0.03501 -0.321191,0.151905 -0.862918,1.534771 -1.818746,3.536989 -2.488092,5.110727 -7.545432,-1.129628 -15.052151,-1.129628 -22.442861,0 -0.669483,-1.608716 -1.660017,-3.575956 -2.526805,-5.110727 -0.06581,-0.112956 -0.193434,-0.171388 -0.321191,-0.151905 -7.01145,1.207579 -13.721066,3.322771 -19.981872,6.197588 -0.0542,0.02337 -0.100657,0.06236 -0.13149,0.112966 -12.726729,19.013458 -16.213112,37.559577 -14.502809,55.875759 0.0078,0.08961 0.05804,0.175323 0.127692,0.229802 8.396733,6.166374 16.530401,9.909916 24.513029,12.391234 0.127757,0.039 0.263119,-0.008 0.34442,-0.11296 1.888294,-2.578658 3.571539,-5.297658 5.014755,-8.156992 0.08517,-0.167436 0.0039,-0.366122 -0.170204,-0.43236 -2.66991,-1.012791 -5.2122,-2.247642 -7.657704,-3.649937 -0.193434,-0.112956 -0.208919,-0.389622 -0.03097,-0.522088 0.514625,-0.385615 1.029388,-0.786869 1.520783,-1.191986 0.08891,-0.074 0.212792,-0.08961 0.317321,-0.04286 16.065913,7.335131 33.459176,7.335131 49.335525,0 0.104529,-0.05063 0.228417,-0.03492 0.321191,0.03898 0.491534,0.405116 1.006161,0.810233 1.524659,1.195857 0.177944,0.132457 0.16633,0.409132 -0.02711,0.522088 -2.445505,1.429531 -4.987798,2.637146 -7.661575,3.646065 -0.17408,0.06624 -0.251508,0.268787 -0.166335,0.436232 1.474186,2.855323 3.157435,5.574313 5.010886,8.153111 0.07743,0.10909 0.216662,0.15583 0.344418,0.11683 8.021346,-2.481308 16.15496,-6.224858 24.55169,-12.391232 0.0735,-0.05451 0.12002,-0.136329 0.12776,-0.225922 2.04689,-21.175513 -3.42844,-39.569547 -14.514435,-55.875768 -0.02707,-0.05451 -0.07346,-0.09346 -0.127621,-0.116837 z M 47.720401,77.625636 c -4.836947,0 -8.822453,-4.440677 -8.822453,-9.894289 0,-5.453612 3.908216,-9.894288 8.822453,-9.894288 4.952813,0 8.899742,4.47967 8.822314,9.894288 0,5.453612 -3.908215,9.894289 -8.822314,9.894289 z m 32.619487,0 c -4.836805,0 -8.822315,-4.440677 -8.822315,-9.894289 0,-5.453612 3.908081,-9.894288 8.822315,-9.894288 4.952951,0 8.899743,4.47967 8.822456,9.894288 0,5.453612 -3.869505,9.894289 -8.822456,9.894289 z"
     fill="#ffffff"
     id="path840"
     style="fill:#dbdbdb;fill-opacity:1;stroke:#000000;stroke-width:2;stroke-miterlimit:4;stroke-dasharray:none;stroke-opacity:1" />
</svg>
