<?xml version="1.0" encoding="UTF-8" standalone="no"?>
<svg
   xmlns:dc="http://purl.org/dc/elements/1.1/"
   xmlns:cc="http://creativecommons.org/ns#"
   xmlns:rdf="http://www.w3.org/1999/02/22-rdf-syntax-ns#"
   xmlns:svg="http://www.w3.org/2000/svg"
   xmlns="http://www.w3.org/2000/svg"
   xmlns:sodipodi="http://sodipodi.sourceforge.net/DTD/sodipodi-0.dtd"
   xmlns:inkscape="http://www.inkscape.org/namespaces/inkscape"
   enable-background="new 0 0 24 24"
   height="128"
   viewBox="0 0 128 128"
   width="128"
   fill="#000000"
   version="1.1"
   id="svg26"
   sodipodi:docname="percent_black_24dp.svg"
   inkscape:version="1.0.2 (e86c870879, 2021-01-15)">
  <metadata
     id="metadata32">
    <rdf:RDF>
      <cc:Work
         rdf:about="">
        <dc:format>image/svg+xml</dc:format>
        <dc:type
           rdf:resource="http://purl.org/dc/dcmitype/StillImage" />
        <dc:title></dc:title>
      </cc:Work>
    </rdf:RDF>
  </metadata>
  <defs
     id="defs30" />
  <sodipodi:namedview
     pagecolor="#ffffff"
     bordercolor="#666666"
     borderopacity="1"
     objecttolerance="10"
     gridtolerance="10"
     guidetolerance="10"
     inkscape:pageopacity="0"
     inkscape:pageshadow="2"
     inkscape:window-width="1920"
     inkscape:window-height="1043"
     id="namedview28"
     showgrid="false"
     inkscape:zoom="3.1156893"
     inkscape:cx="-29.40389"
     inkscape:cy="20.98328"
     inkscape:window-x="0"
     inkscape:window-y="0"
     inkscape:window-maximized="1"
     inkscape:current-layer="svg26" />
  <g
     id="g4">
    <rect
       fill="none"
       height="24"
       width="24"
       id="rect2"
       x="0"
       y="0" />
  </g>
  <g
     id="g24"
     transform="matrix(4.7305369,0,0,4.7305369,7.2236906,7.2438968)"
     style="fill:#ffffff;fill-opacity:1">
    <g
       id="g22"
       style="fill:#ffffff;fill-opacity:1">
      <g
         id="g10"
         style="fill:#ffffff;fill-opacity:1">
        <g
           id="g8"
           style="fill:#ffffff;fill-opacity:1">
          <path
             d="M 7.5,11 C 9.43,11 11,9.43 11,7.5 11,5.57 9.43,4 7.5,4 5.57,4 4,5.57 4,7.5 4,9.43 5.57,11 7.5,11 Z m 0,-5 C 8.33,6 9,6.67 9,7.5 9,8.33 8.33,9 7.5,9 6.67,9 6,8.33 6,7.5 6,6.67 6.67,6 7.5,6 Z"
             id="path6"
             style="fill:#ffffff;fill-opacity:1" />
        </g>
      </g>
      <g
         id="g14"
         style="fill:#ffffff;fill-opacity:1">
        <rect
           height="2"
           transform="matrix(0.7071,-0.7071,0.7071,0.7071,-4.9706,12)"
           width="20.629999"
           x="1.6900001"
           y="11"
           id="rect12"
           style="fill:#ffffff;fill-opacity:1" />
      </g>
      <g
         id="g20"
         style="fill:#ffffff;fill-opacity:1">
        <g
           id="g18"
           style="fill:#ffffff;fill-opacity:1">
          <path
             d="M 16.5,13 C 14.57,13 13,14.57 13,16.5 13,18.43 14.57,20 16.5,20 18.43,20 20,18.43 20,16.5 20,14.57 18.43,13 16.5,13 Z m 0,5 C 15.67,18 15,17.33 15,16.5 15,15.67 15.67,15 16.5,15 c 0.83,0 1.5,0.67 1.5,1.5 0,0.83 -0.67,1.5 -1.5,1.5 z"
             id="path16"
             style="fill:#ffffff;fill-opacity:1" />
        </g>
      </g>
    </g>
  </g>
</svg>
