<?xml version="1.0" encoding="UTF-8" standalone="no"?>
<svg
   enable-background="new 0 0 24 24"
   height="128"
   viewBox="0 0 128 128"
   width="128"
   fill="#000000"
   version="1.1"
   id="svg14"
   sodipodi:docname="icon_hold.svg"
   inkscape:version="1.1.2 (0a00cf5339, 2022-02-04)"
   xmlns:inkscape="http://www.inkscape.org/namespaces/inkscape"
   xmlns:sodipodi="http://sodipodi.sourceforge.net/DTD/sodipodi-0.dtd"
   xmlns="http://www.w3.org/2000/svg"
   xmlns:svg="http://www.w3.org/2000/svg">
  <defs
     id="defs18" />
  <sodipodi:namedview
     id="namedview16"
     pagecolor="#ffffff"
     bordercolor="#666666"
     borderopacity="1.0"
     inkscape:pageshadow="2"
     inkscape:pageopacity="0.0"
     inkscape:pagecheckerboard="0"
     showgrid="false"
     inkscape:zoom="2.9020841"
     inkscape:cx="-161.78029"
     inkscape:cy="16.367548"
     inkscape:window-width="2560"
     inkscape:window-height="963"
     inkscape:window-x="0"
     inkscape:window-y="326"
     inkscape:window-maximized="1"
     inkscape:current-layer="svg14" />
  <g
     id="g4">
    <rect
       fill="none"
       height="24"
       width="24"
       x="0"
       id="rect2"
       y="0" />
  </g>
  <g
     id="g12"
     transform="matrix(4.6910768,0,0,4.6910768,6.5343092,0.6704632)"
     style="font-variation-settings:normal;opacity:1;vector-effect:none;fill:#dbdbdb;fill-opacity:1;stroke:#000000;stroke-width:0.42634135;stroke-linecap:butt;stroke-linejoin:miter;stroke-miterlimit:4;stroke-dasharray:none;stroke-dashoffset:0;stroke-opacity:1;-inkscape-stroke:none;stop-color:#000000;stop-opacity:1">
    <g
       id="g10"
       style="font-variation-settings:normal;vector-effect:none;fill:#dbdbdb;fill-opacity:1;stroke:#000000;stroke-width:0.42634135;stroke-linecap:butt;stroke-linejoin:miter;stroke-miterlimit:4;stroke-dasharray:none;stroke-dashoffset:0;stroke-opacity:1;-inkscape-stroke:none;stop-color:#000000;stop-opacity:1">
      <g
         id="g8"
         style="font-variation-settings:normal;vector-effect:none;fill:#dbdbdb;fill-opacity:1;stroke:#000000;stroke-width:0.42634135;stroke-linecap:butt;stroke-linejoin:miter;stroke-miterlimit:4;stroke-dasharray:none;stroke-dashoffset:0;stroke-opacity:1;-inkscape-stroke:none;stop-color:#000000;stop-opacity:1">
        <path
           d="M 9,11.24 V 7.5 C 9,6.12 10.12,5 11.5,5 12.88,5 14,6.12 14,7.5 v 3.74 C 15.21,10.43 16,9.06 16,7.5 16,5.01 13.99,3 11.5,3 9.01,3 7,5.01 7,7.5 c 0,1.56 0.79,2.93 2,3.74 z m 9.84,4.63 -4.54,-2.26 C 14.13,13.54 13.95,13.5 13.76,13.5 H 13 v -6 C 13,6.67 12.33,6 11.5,6 10.67,6 10,6.67 10,7.5 V 18.24 C 6.4,17.48 6.46,17.49 6.33,17.49 c -0.31,0 -0.59,0.13 -0.79,0.33 l -0.79,0.8 4.94,4.94 C 9.96,23.83 10.34,24 10.75,24 h 6.79 c 0.75,0 1.33,-0.55 1.44,-1.28 l 0.75,-5.27 c 0.01,-0.07 0.02,-0.14 0.02,-0.2 0,-0.62 -0.38,-1.16 -0.91,-1.38 z"
           id="path6"
           style="font-variation-settings:normal;vector-effect:none;fill:#dbdbdb;fill-opacity:1;stroke:#000000;stroke-width:0.42634135;stroke-linecap:butt;stroke-linejoin:miter;stroke-miterlimit:4;stroke-dasharray:none;stroke-dashoffset:0;stroke-opacity:1;-inkscape-stroke:none;stop-color:#000000;stop-opacity:1" />
      </g>
    </g>
  </g>
</svg>
