<?xml version="1.0" encoding="UTF-8" standalone="no"?>
<svg
   xmlns:dc="http://purl.org/dc/elements/1.1/"
   xmlns:cc="http://creativecommons.org/ns#"
   xmlns:rdf="http://www.w3.org/1999/02/22-rdf-syntax-ns#"
   xmlns:svg="http://www.w3.org/2000/svg"
   xmlns="http://www.w3.org/2000/svg"
   xmlns:sodipodi="http://sodipodi.sourceforge.net/DTD/sodipodi-0.dtd"
   xmlns:inkscape="http://www.inkscape.org/namespaces/inkscape"
   enable-background="new 0 0 24 24"
   height="128"
   viewBox="0 0 128 128"
   width="128"
   fill="#000000"
   version="1.1"
   id="svg8"
   sodipodi:docname="icon_credits.svg"
   inkscape:version="1.0.2 (e86c870879, 2021-01-15)">
  <metadata
     id="metadata14">
    <rdf:RDF>
      <cc:Work
         rdf:about="">
        <dc:format>image/svg+xml</dc:format>
        <dc:type
           rdf:resource="http://purl.org/dc/dcmitype/StillImage" />
        <dc:title></dc:title>
      </cc:Work>
    </rdf:RDF>
  </metadata>
  <defs
     id="defs12" />
  <sodipodi:namedview
     pagecolor="#ffffff"
     bordercolor="#666666"
     borderopacity="1"
     objecttolerance="10"
     gridtolerance="10"
     guidetolerance="10"
     inkscape:pageopacity="0"
     inkscape:pageshadow="2"
     inkscape:window-width="2560"
     inkscape:window-height="1003"
     id="namedview10"
     showgrid="false"
     inkscape:zoom="3.1156893"
     inkscape:cx="3.5326823"
     inkscape:cy="82.558137"
     inkscape:window-x="1920"
     inkscape:window-y="0"
     inkscape:window-maximized="1"
     inkscape:current-layer="svg8" />
  <rect
     fill="none"
     height="24"
     width="24"
     id="rect2"
     x="0"
     y="0" />
  <path
     d="m 64,67.115178 c 6.770321,0 12.751463,1.619894 17.611142,3.738213 4.485857,1.993716 7.310285,6.479573 7.310285,11.339251 v 6.728785 H 39.078572 v -6.687251 c 0,-4.901212 2.824429,-9.387069 7.310285,-11.339248 C 51.248536,68.735072 57.229679,67.115178 64,67.115178 Z M 30.77143,68.15357 c 4.568928,0 8.307142,-3.738213 8.307142,-8.307141 0,-4.568928 -3.738214,-8.307143 -8.307142,-8.307143 -4.568928,0 -8.307143,3.738215 -8.307143,8.307143 0,4.568928 3.738215,8.307141 8.307143,8.307141 z m 4.693535,4.568929 c -1.536821,-0.249214 -3.073643,-0.415358 -4.693535,-0.415358 -4.112036,0 -8.016393,0.872252 -11.546928,2.409073 -3.073643,1.329142 -5.067357,4.319713 -5.067357,7.684105 v 6.521108 h 18.69107 v -6.687251 c 0,-3.447462 0.955322,-6.687249 2.61675,-9.511677 z M 97.228569,68.15357 c 4.568931,0 8.307141,-3.738213 8.307141,-8.307141 0,-4.568928 -3.73821,-8.307143 -8.307141,-8.307143 -4.568927,0 -8.307142,3.738215 -8.307142,8.307143 0,4.568928 3.738215,8.307141 8.307142,8.307141 z m 16.614291,14.246749 c 0,-3.364392 -1.99372,-6.354963 -5.06736,-7.684105 -3.53054,-1.536821 -7.4349,-2.409073 -11.546931,-2.409073 -1.619893,0 -3.156714,0.166144 -4.693535,0.415358 1.661429,2.824428 2.61675,6.064215 2.61675,9.511677 v 6.687251 H 113.84286 Z M 64,39.078572 c 6.894928,0 12.460713,5.565785 12.460713,12.460713 C 76.460713,58.434214 70.894928,64 64,64 57.105071,64 51.539285,58.434214 51.539285,51.539285 51.539285,44.644357 57.105071,39.078572 64,39.078572 Z"
     id="path4"
     style="stroke-width:2;fill:#dbdbdb;fill-opacity:1;stroke:#000000;stroke-opacity:1;stroke-miterlimit:4;stroke-dasharray:none" />
</svg>
