<?xml version="1.0" encoding="UTF-8" standalone="no"?>
<svg
   xmlns:dc="http://purl.org/dc/elements/1.1/"
   xmlns:cc="http://creativecommons.org/ns#"
   xmlns:rdf="http://www.w3.org/1999/02/22-rdf-syntax-ns#"
   xmlns:svg="http://www.w3.org/2000/svg"
   xmlns="http://www.w3.org/2000/svg"
   xmlns:sodipodi="http://sodipodi.sourceforge.net/DTD/sodipodi-0.dtd"
   xmlns:inkscape="http://www.inkscape.org/namespaces/inkscape"
   enable-background="new 0 0 24 24"
   height="128"
   viewBox="0 0 128 128"
   width="128"
   fill="#000000"
   version="1.1"
   id="svg6"
   sodipodi:docname="icon_achievements.svg"
   inkscape:version="1.0.2 (e86c870879, 2021-01-15)">
  <metadata
     id="metadata12">
    <rdf:RDF>
      <cc:Work
         rdf:about="">
        <dc:format>image/svg+xml</dc:format>
        <dc:type
           rdf:resource="http://purl.org/dc/dcmitype/StillImage" />
        <dc:title></dc:title>
      </cc:Work>
    </rdf:RDF>
  </metadata>
  <defs
     id="defs10" />
  <sodipodi:namedview
     pagecolor="#ffffff"
     bordercolor="#666666"
     borderopacity="1"
     objecttolerance="10"
     gridtolerance="10"
     guidetolerance="10"
     inkscape:pageopacity="0"
     inkscape:pageshadow="2"
     inkscape:window-width="2560"
     inkscape:window-height="1003"
     id="namedview8"
     showgrid="false"
     inkscape:zoom="1.5578446"
     inkscape:cx="-212.94958"
     inkscape:cy="72.71329"
     inkscape:window-x="1920"
     inkscape:window-y="0"
     inkscape:window-maximized="1"
     inkscape:current-layer="svg6" />
  <rect
     fill="none"
     height="24"
     width="24"
     id="rect2"
     x="0"
     y="0" />
  <path
     d="m 98.416995,29.58301 h -9.83343 V 19.749584 H 39.416437 V 29.58301 H 29.58301 c -5.408383,0 -9.833426,4.425042 -9.833426,9.833426 v 4.916713 c 0,12.537618 9.440089,22.764381 21.58437,24.288567 3.097529,7.37506 9.735092,12.93095 17.749334,14.55347 v 15.24181 H 39.416437 v 9.833424 H 88.583566 V 98.416996 H 68.916714 v -15.24181 c 8.014241,-1.62252 14.651802,-7.17841 17.749331,-14.55347 C 98.810326,67.09753 108.25042,56.870767 108.25042,44.333149 v -4.916713 c 0,-5.408384 -4.42504,-9.833426 -9.833425,-9.833426 z M 29.58301,44.333149 v -4.916713 h 9.833427 V 58.19828 C 33.71305,56.13326 29.58301,50.724876 29.58301,44.333149 Z m 68.833985,0 c 0,6.391727 -4.130039,11.800111 -9.83343,13.865131 V 39.416436 h 9.83343 z"
     id="path4"
     style="font-variation-settings:normal;opacity:1;vector-effect:none;fill:#dbdbdb;fill-opacity:1;stroke:#000000;stroke-width:2;stroke-linecap:butt;stroke-linejoin:miter;stroke-miterlimit:4;stroke-dasharray:none;stroke-dashoffset:0;stroke-opacity:1;stop-color:#000000;stop-opacity:1" />
</svg>
