<?xml version="1.0" encoding="UTF-8" standalone="no"?>
<svg
   xmlns:dc="http://purl.org/dc/elements/1.1/"
   xmlns:cc="http://creativecommons.org/ns#"
   xmlns:rdf="http://www.w3.org/1999/02/22-rdf-syntax-ns#"
   xmlns:svg="http://www.w3.org/2000/svg"
   xmlns="http://www.w3.org/2000/svg"
   xmlns:sodipodi="http://sodipodi.sourceforge.net/DTD/sodipodi-0.dtd"
   xmlns:inkscape="http://www.inkscape.org/namespaces/inkscape"
   width="128"
   height="128"
   viewBox="0 0 33.866666 33.866666"
   version="1.1"
   id="svg8"
   inkscape:version="1.0.2 (e86c870879, 2021-01-15)"
   sodipodi:docname="icon_settings.svg">
  <style
     id="style10" />
  <defs
     id="defs2" />
  <sodipodi:namedview
     id="base"
     pagecolor="#ffffff"
     bordercolor="#666666"
     borderopacity="1.0"
     inkscape:pageopacity="0.0"
     inkscape:pageshadow="2"
     inkscape:zoom="1.979899"
     inkscape:cx="48.970318"
     inkscape:cy="162.77253"
     inkscape:document-units="mm"
     inkscape:current-layer="layer1"
     inkscape:document-rotation="0"
     showgrid="false"
     units="px"
     inkscape:window-width="2560"
     inkscape:window-height="1003"
     inkscape:window-x="1920"
     inkscape:window-y="0"
     inkscape:window-maximized="1">
    <inkscape:grid
       dotted="true"
       type="xygrid"
       id="grid12" />
    <sodipodi:guide
       position="0,67.733332"
       orientation="0,256"
       id="guide22" />
    <sodipodi:guide
       position="67.733332,67.733332"
       orientation="256,0"
       id="guide24" />
    <sodipodi:guide
       position="67.733332,0"
       orientation="0,-256"
       id="guide26" />
    <sodipodi:guide
       position="0,0"
       orientation="-256,0"
       id="guide28" />
  </sodipodi:namedview>
  <metadata
     id="metadata5">
    <rdf:RDF>
      <cc:Work
         rdf:about="">
        <dc:format>image/svg+xml</dc:format>
        <dc:type
           rdf:resource="http://purl.org/dc/dcmitype/StillImage" />
        <dc:title></dc:title>
      </cc:Work>
    </rdf:RDF>
  </metadata>
  <g
     inkscape:label="Layer 1"
     inkscape:groupmode="layer"
     id="layer1">
    <path
       d="m 25.521282,18.065762 c 0.0462,-0.369787 0.08089,-0.739547 0.08089,-1.132428 0,-0.392891 -0.03451,-0.762656 -0.08089,-1.132431 l 2.438185,-1.906633 c 0.219549,-0.173342 0.27733,-0.485326 0.138665,-0.739546 L 25.787055,9.1565639 C 25.648391,8.9023389 25.336397,8.8099249 25.082176,8.9023389 L 22.204891,10.057875 C 21.604012,9.5956609 20.956909,9.2143319 20.25203,8.9254469 L 19.812925,5.8632756 C 19.778419,5.5859463 19.535596,5.37795 19.246715,5.37795 h -4.622153 c -0.288903,0 -0.531545,0.2080175 -0.566215,0.4853256 l -0.4391,3.0621713 c -0.704879,0.288902 -1.351981,0.681771 -1.952859,1.1324281 L 8.7890968,8.9023389 c -0.265755,-0.103988 -0.566209,0 -0.704874,0.254225 L 5.7731462,13.154724 c -0.150238,0.254224 -0.080886,0.566213 0.1386652,0.739546 l 2.4381844,1.906633 c -0.0462,0.369789 -0.08089,0.7511 -0.08089,1.132431 0,0.381316 0.03451,0.762654 0.08089,1.132428 l -2.4381844,1.906633 c -0.2195496,0.173343 -0.2773288,0.485326 -0.1386652,0.739543 l 2.3110766,3.998164 c 0.138665,0.254226 0.450658,0.346639 0.704874,0.254226 l 2.8772912,-1.155537 c 0.600878,0.462214 1.24798,0.843543 1.952859,1.132423 l 0.4391,3.062177 c 0.03451,0.277328 0.277329,0.485326 0.566215,0.485326 h 4.622153 c 0.288903,0 0.531547,-0.207976 0.56621,-0.485326 l 0.439105,-3.062177 c 0.704879,-0.288858 1.351982,-0.681765 1.952861,-1.132423 l 2.877285,1.155537 c 0.2658,0.103986 0.566215,0 0.704879,-0.254226 l 2.311077,-3.998164 c 0.138665,-0.254224 0.08089,-0.56621 -0.138665,-0.739543 z m -8.585643,2.911954 c -2.230189,0 -4.044383,-1.814195 -4.044383,-4.044382 0,-2.23019 1.814194,-4.044383 4.044383,-4.044383 2.230188,0 4.044383,1.814193 4.044383,4.044383 0,2.230187 -1.814195,4.044382 -4.044383,4.044382 z"
       id="path1061"
       style="font-variation-settings:normal;opacity:1;vector-effect:none;fill:#dbdbdb;fill-opacity:1;stroke:#000000;stroke-width:0.529167;stroke-linecap:butt;stroke-linejoin:miter;stroke-miterlimit:4;stroke-dasharray:none;stroke-dashoffset:0;stroke-opacity:1;stop-color:#000000;stop-opacity:1" />
  </g>
  <style
     id="style837" />
  <style
     id="style837-3" />
</svg>
