<?xml version="1.0" encoding="UTF-8" standalone="no"?>
<svg
   xmlns:dc="http://purl.org/dc/elements/1.1/"
   xmlns:cc="http://creativecommons.org/ns#"
   xmlns:rdf="http://www.w3.org/1999/02/22-rdf-syntax-ns#"
   xmlns:svg="http://www.w3.org/2000/svg"
   xmlns="http://www.w3.org/2000/svg"
   xmlns:sodipodi="http://sodipodi.sourceforge.net/DTD/sodipodi-0.dtd"
   xmlns:inkscape="http://www.inkscape.org/namespaces/inkscape"
   height="128"
   viewBox="0 0 128 128"
   width="128"
   fill="#000000"
   version="1.1"
   id="svg6"
   sodipodi:docname="web.svg"
   inkscape:version="1.0.2 (e86c870879, 2021-01-15)">
  <metadata
     id="metadata12">
    <rdf:RDF>
      <cc:Work
         rdf:about="">
        <dc:format>image/svg+xml</dc:format>
        <dc:type
           rdf:resource="http://purl.org/dc/dcmitype/StillImage" />
        <dc:title></dc:title>
      </cc:Work>
    </rdf:RDF>
  </metadata>
  <defs
     id="defs10" />
  <sodipodi:namedview
     pagecolor="#ffffff"
     bordercolor="#666666"
     borderopacity="1"
     objecttolerance="10"
     gridtolerance="10"
     guidetolerance="10"
     inkscape:pageopacity="0"
     inkscape:pageshadow="2"
     inkscape:window-width="2560"
     inkscape:window-height="1003"
     id="namedview8"
     showgrid="false"
     inkscape:zoom="1.5578446"
     inkscape:cx="-320.03805"
     inkscape:cy="-44.022603"
     inkscape:window-x="1920"
     inkscape:window-y="0"
     inkscape:window-maximized="1"
     inkscape:current-layer="svg6" />
  <path
     d="M 0,0 H 24 V 24 H 0 Z"
     fill="none"
     id="path2" />
  <path
     d="M 63.938376,2.37572 C 29.921773,2.37572 2.37572,29.983397 2.37572,64 c 0,34.016603 27.546053,61.62428 61.562656,61.62428 34.078227,0 61.685904,-27.607677 61.685904,-61.62428 0,-34.016603 -27.607677,-61.62428 -61.685904,-61.62428 z M 106.644,39.350288 H 88.464839 C 86.492862,31.647253 83.658145,24.252339 79.960689,17.412044 91.299556,21.294374 100.72807,29.182282 106.644,39.350288 Z M 64,14.947073 c 5.114815,7.394914 9.120393,15.590943 11.770237,24.403215 H 52.229763 C 54.879607,30.538016 58.885185,22.341987 64,14.947073 Z M 16.302807,76.324856 C 15.316819,72.380902 14.700576,68.252075 14.700576,64 c 0,-4.252075 0.616243,-8.380902 1.602231,-12.324856 H 37.131814 C 36.63882,55.742346 36.269074,59.809549 36.269074,64 c 0,4.190451 0.369746,8.257654 0.86274,12.324856 z m 5.053191,12.324856 h 18.179163 c 1.971977,7.703035 4.806694,15.097948 8.50415,21.938248 C 36.700444,106.70563 27.271929,98.879342 21.355998,88.649712 Z M 39.535161,39.350288 H 21.355998 c 5.915931,-10.22963 15.344446,-18.055914 26.683313,-21.938244 -3.697456,6.840295 -6.532173,14.235209 -8.50415,21.938244 z M 64,113.05293 C 58.885185,105.65801 54.879607,97.461984 52.229763,88.649712 H 75.770237 C 73.120393,97.461984 69.114815,105.65801 64,113.05293 Z M 78.420082,76.324856 H 49.579918 C 49.0253,72.257654 48.59393,68.190451 48.59393,64 c 0,-4.190451 0.43137,-8.319278 0.985988,-12.324856 H 78.420082 C 78.9747,55.680722 79.40607,59.809549 79.40607,64 c 0,4.190451 -0.43137,8.257654 -0.985988,12.324856 z m 1.540607,34.263104 c 3.697456,-6.8403 6.532173,-14.235213 8.50415,-21.938248 H 106.644 C 100.72807,98.817718 91.299556,106.70563 79.960689,110.58796 Z M 90.868186,76.324856 C 91.36118,72.257654 91.730926,68.190451 91.730926,64 c 0,-4.190451 -0.369746,-8.257654 -0.86274,-12.324856 h 20.829004 c 0.98599,3.943954 1.60223,8.072781 1.60223,12.324856 0,4.252075 -0.61624,8.380902 -1.60223,12.324856 z"
     id="path4"
     style="fill:#ffffff;fill-opacity:1;stroke-width:6.16243" />
</svg>
