<?xml version="1.0" encoding="UTF-8" standalone="no"?>
<svg
   width="128"
   height="128"
   viewBox="0 0 33.866667 33.866667"
   version="1.1"
   id="svg8"
   inkscape:version="1.1.1 (3bf5ae0d25, 2021-09-20)"
   sodipodi:docname="collector.svg"
   shape-rendering="crispEdges"
   xmlns:inkscape="http://www.inkscape.org/namespaces/inkscape"
   xmlns:sodipodi="http://sodipodi.sourceforge.net/DTD/sodipodi-0.dtd"
   xmlns="http://www.w3.org/2000/svg"
   xmlns:svg="http://www.w3.org/2000/svg"
   xmlns:rdf="http://www.w3.org/1999/02/22-rdf-syntax-ns#"
   xmlns:cc="http://creativecommons.org/ns#"
   xmlns:dc="http://purl.org/dc/elements/1.1/">
  <style
     id="style10" />
  <defs
     id="defs2">
    <pattern
       patternUnits="userSpaceOnUse"
       width="17.848198"
       height="25.089017"
       patternTransform="translate(18.306965,145.66037)"
       id="pattern3868">
      <path
         id="path953-2"
         style="display:inline;fill:none;stroke:#000000;stroke-width:2;stroke-linecap:square;stroke-linejoin:miter;stroke-miterlimit:4;stroke-dasharray:none;stroke-opacity:1"
         d="m 16.506555,16.506558 c 0,2.527486 0,5.054972 0,7.582459 M 1.3416409,16.506558 c 0,2.527486 0,5.054972 0,7.582459 M 16.506557,16.506558 c 0,2.527486 0,5.054972 0,7.582459 M 1.3416409,16.506558 c 2.5274857,-1.263743 5.0549723,-2.527486 7.5824589,-3.791229 2.5274862,1.263743 5.0549702,2.527486 7.5824562,3.791229 M 8.9240998,5.1328707 c 0,2.5274861 0,5.0549723 0,7.5824583 M 1.3416409,1.3416415 C 3.8691266,2.6053846 6.3966132,3.8691276 8.9240998,5.1328707 11.451586,3.8691276 13.979071,2.6053846 16.506557,1.3416415" />
    </pattern>
  </defs>
  <sodipodi:namedview
     id="base"
     pagecolor="#ffffff"
     bordercolor="#666666"
     borderopacity="1.0"
     inkscape:pageopacity="0.0"
     inkscape:pageshadow="2"
     inkscape:zoom="4.3696989"
     inkscape:cx="132.16013"
     inkscape:cy="52.978478"
     inkscape:document-units="px"
     inkscape:current-layer="g841"
     inkscape:document-rotation="0"
     showgrid="false"
     units="px"
     inkscape:window-width="2560"
     inkscape:window-height="1003"
     inkscape:window-x="0"
     inkscape:window-y="309"
     inkscape:window-maximized="1"
     inkscape:pagecheckerboard="0"
     showguides="false">
    <inkscape:grid
       dotted="true"
       type="xygrid"
       id="grid12"
       enabled="false" />
    <sodipodi:guide
       position="0,67.733332"
       orientation="0,256"
       id="guide22" />
    <sodipodi:guide
       position="68.802342,15.180043"
       orientation="256,0"
       id="guide24" />
  </sodipodi:namedview>
  <metadata
     id="metadata5">
    <rdf:RDF>
      <cc:Work
         rdf:about="">
        <dc:format>image/svg+xml</dc:format>
        <dc:type
           rdf:resource="http://purl.org/dc/dcmitype/StillImage" />
      </cc:Work>
    </rdf:RDF>
  </metadata>
  <g
     inkscape:label="Layer 1"
     inkscape:groupmode="layer"
     id="layer1">
    <g
       id="g841"
       transform="matrix(2.1538598,0,0,2.1538608,-1.2211722,-1.2212256)"
       style="stroke-width:0.464282">
      <rect
         style="fill:#0f1a27;fill-opacity:1;stroke:none;stroke-width:0.281913;stroke-linecap:round;stroke-linejoin:round"
         id="rect842"
         width="15.72371"
         height="15.723702"
         x="-16.29068"
         y="0.56699383"
         transform="scale(-1,1)" />
      <circle
         style="display:inline;opacity:0.998;fill:#c85eff;fill-opacity:0.6;stroke:none;stroke-width:0.245683;stroke-linecap:round;stroke-linejoin:round;stroke-miterlimit:4;stroke-dasharray:none;stroke-opacity:1"
         id="path2034-7"
         cx="-13.37537"
         cy="20.112471"
         r="0"
         inkscape:export-xdpi="94.523079"
         inkscape:export-ydpi="94.523079"
         transform="scale(-1,1)" />
      <circle
         style="display:inline;opacity:0.998;fill:#c85eff;fill-opacity:0.6;stroke:none;stroke-width:0.245683;stroke-linecap:round;stroke-linejoin:round;stroke-miterlimit:4;stroke-dasharray:none;stroke-opacity:1"
         id="path2034-5"
         cx="-13.37537"
         cy="20.112471"
         r="0"
         inkscape:export-xdpi="94.523079"
         inkscape:export-ydpi="94.523079"
         transform="scale(-1,1)" />
      <circle
         style="display:inline;opacity:0.998;fill:#c85eff;fill-opacity:0.6;stroke:none;stroke-width:0.245683;stroke-linecap:round;stroke-linejoin:round;stroke-miterlimit:4;stroke-dasharray:none;stroke-opacity:1"
         id="path2034-3"
         cx="-13.37537"
         cy="20.112471"
         r="0"
         inkscape:export-xdpi="94.523079"
         inkscape:export-ydpi="94.523079"
         transform="scale(-1,1)" />
      <circle
         style="display:inline;opacity:0.998;fill:#c85eff;fill-opacity:0.6;stroke:none;stroke-width:0.245683;stroke-linecap:round;stroke-linejoin:round;stroke-miterlimit:4;stroke-dasharray:none;stroke-opacity:1"
         id="path2034-7-36"
         cx="-16.536938"
         cy="21.915462"
         r="0"
         inkscape:export-xdpi="94.523079"
         inkscape:export-ydpi="94.523079"
         transform="scale(-1,1)" />
      <circle
         style="display:inline;opacity:0.998;fill:#c85eff;fill-opacity:0.6;stroke:none;stroke-width:0.245683;stroke-linecap:round;stroke-linejoin:round;stroke-miterlimit:4;stroke-dasharray:none;stroke-opacity:1"
         id="path2034-5-7"
         cx="-16.536938"
         cy="21.915462"
         r="0"
         inkscape:export-xdpi="94.523079"
         inkscape:export-ydpi="94.523079"
         transform="scale(-1,1)" />
      <circle
         style="display:inline;opacity:0.998;fill:#c85eff;fill-opacity:0.6;stroke:none;stroke-width:0.245683;stroke-linecap:round;stroke-linejoin:round;stroke-miterlimit:4;stroke-dasharray:none;stroke-opacity:1"
         id="path2034-3-5"
         cx="-16.536938"
         cy="21.915462"
         r="0"
         inkscape:export-xdpi="94.523079"
         inkscape:export-ydpi="94.523079"
         transform="scale(-1,1)" />
      <circle
         style="display:inline;opacity:0.998;fill:#c85eff;fill-opacity:0.6;stroke:none;stroke-width:0.245683;stroke-linecap:round;stroke-linejoin:round;stroke-miterlimit:4;stroke-dasharray:none;stroke-opacity:1"
         id="path2034-7-6"
         cx="-16.536938"
         cy="-19.88945"
         r="0"
         inkscape:export-xdpi="94.523079"
         inkscape:export-ydpi="94.523079"
         transform="scale(-1)" />
      <circle
         style="display:inline;opacity:0.998;fill:#c85eff;fill-opacity:0.6;stroke:none;stroke-width:0.245683;stroke-linecap:round;stroke-linejoin:round;stroke-miterlimit:4;stroke-dasharray:none;stroke-opacity:1"
         id="path2034-5-2"
         cx="-16.536938"
         cy="-19.88945"
         r="0"
         inkscape:export-xdpi="94.523079"
         inkscape:export-ydpi="94.523079"
         transform="scale(-1)" />
      <circle
         style="display:inline;opacity:0.998;fill:#c85eff;fill-opacity:0.6;stroke:none;stroke-width:0.245683;stroke-linecap:round;stroke-linejoin:round;stroke-miterlimit:4;stroke-dasharray:none;stroke-opacity:1"
         id="path2034-3-9"
         cx="-16.536938"
         cy="-19.88945"
         r="0"
         inkscape:export-xdpi="94.523079"
         inkscape:export-ydpi="94.523079"
         transform="scale(-1)" />
      <g
         aria-label="X"
         id="text1724"
         style="font-style:italic;font-weight:bold;font-size:6.82024px;line-height:1.25;font-family:Rubik;-inkscape-font-specification:'Rubik Bold Italic';fill:#0f1a27;stroke:#ff1690;stroke-width:0.245683;stroke-miterlimit:4;stroke-dasharray:none;stop-color:#000000"
         transform="translate(-0.40908822,0.29196517)">
        <path
           d="m 2.6226152,8.1387043 q -0.088663,0 -0.1159441,-0.075023 -0.034101,-0.081843 0.027281,-0.1500453 L 4.5800241,5.6765977 3.5297071,3.582784 q -0.034101,-0.075023 0.013641,-0.1432251 0.047742,-0.075023 0.1432251,-0.075023 h 0.8798109 q 0.1295846,0 0.170506,0.054562 0.047742,0.054562 0.061382,0.088663 L 5.4393744,4.7899664 6.564714,3.5077613 q 0.034101,-0.034101 0.095483,-0.088663 0.068202,-0.054562 0.1909667,-0.054562 h 0.9684741 q 0.088663,0 0.1159441,0.081843 0.034101,0.075023 -0.027281,0.143225 L 5.9645328,5.8402834 7.0080296,7.9204566 q 0.034101,0.075023 -0.013641,0.1500453 -0.040922,0.068202 -0.1432251,0.068202 H 5.9781733 q -0.1227643,0 -0.170506,-0.054562 -0.047742,-0.054562 -0.061382,-0.081843 L 5.1120028,6.7541956 3.9593823,8.0022995 q -0.020461,0.027281 -0.088663,0.081843 -0.061382,0.054562 -0.1909667,0.054562 z"
           style="stroke-width:0.245683;stroke-miterlimit:4;stroke-dasharray:none;stop-color:#000000;stop-opacity:1"
           id="path8566" />
      </g>
      <g
         aria-label="/"
         id="text4370"
         style="font-style:italic;font-weight:bold;font-size:6.82024px;line-height:1.25;font-family:Rubik;-inkscape-font-specification:'Rubik Bold Italic';fill:#0f1a27;stroke:#ff1690;stroke-width:0.245683;stroke-miterlimit:4;stroke-dasharray:none;stop-color:#000000"
         transform="translate(-0.40908822,0.29196517)">
        <path
           d="m 6.4994122,11.548492 q -0.075023,0 -0.1091238,-0.0682 -0.034101,-0.06138 0.01364,-0.136404 L 9.902712,5.7785688 q 0.034101,-0.054562 0.102304,-0.1091239 0.0682,-0.054562 0.177326,-0.054562 h 0.627462 q 0.09548,0 0.115944,0.068202 0.02046,0.061382 -0.02728,0.1364048 L 7.3928636,11.384806 Q 7.3587626,11.432546 7.29056,11.48711 7.222358,11.54849 7.1132338,11.54849 Z"
           style="stroke-width:0.245683;stroke-miterlimit:4;stroke-dasharray:none;stop-color:#000000;stop-opacity:1"
           id="path8563" />
      </g>
      <path
         d="m 9.4474238,13.201189 q -0.088663,0 -0.1159441,-0.07502 -0.034101,-0.08184 0.027281,-0.150045 L 11.404833,10.739082 10.354516,8.6452684 q -0.0341,-0.075023 0.01364,-0.143225 0.04774,-0.075023 0.143225,-0.075023 h 0.879811 q 0.129585,0 0.170506,0.054562 0.04774,0.054562 0.06138,0.088663 l 0.641102,1.2822051 1.12534,-1.2822051 q 0.0341,-0.034101 0.09548,-0.088663 0.0682,-0.054562 0.190967,-0.054562 h 0.968474 q 0.08866,0 0.115944,0.081843 0.0341,0.075023 -0.02728,0.1432251 l -1.943768,2.2506795 1.043496,2.080173 q 0.0341,0.07502 -0.01364,0.150045 -0.04092,0.0682 -0.143225,0.0682 h -0.872986 q -0.122764,0 -0.170506,-0.05456 -0.04774,-0.05456 -0.06138,-0.08184 l -0.634284,-1.248106 -1.152621,1.248104 q -0.02046,0.02728 -0.08866,0.08184 -0.06138,0.05456 -0.190967,0.05456 z"
         style="font-style:italic;font-weight:bold;font-size:6.82024px;line-height:1.25;font-family:Rubik;-inkscape-font-specification:'Rubik Bold Italic';fill:#0f1a27;stroke:#ff1690;stroke-width:0.245683;stroke-miterlimit:4;stroke-dasharray:none;stop-color:#000000"
         id="path8560" />
    </g>
  </g>
  <style
     id="style837" />
</svg>
