<?xml version="1.0" encoding="UTF-8" standalone="no"?>
<svg
   width="128"
   height="128"
   viewBox="0 0 33.866667 33.866667"
   version="1.1"
   id="svg8"
   inkscape:version="1.1.1 (3bf5ae0d25, 2021-09-20)"
   sodipodi:docname="completionist.svg"
   xmlns:inkscape="http://www.inkscape.org/namespaces/inkscape"
   xmlns:sodipodi="http://sodipodi.sourceforge.net/DTD/sodipodi-0.dtd"
   xmlns="http://www.w3.org/2000/svg"
   xmlns:svg="http://www.w3.org/2000/svg"
   xmlns:rdf="http://www.w3.org/1999/02/22-rdf-syntax-ns#"
   xmlns:cc="http://creativecommons.org/ns#"
   xmlns:dc="http://purl.org/dc/elements/1.1/">
  <style
     id="style10" />
  <defs
     id="defs2">
    <pattern
       patternUnits="userSpaceOnUse"
       width="17.848198"
       height="25.089017"
       patternTransform="translate(18.306965,145.66037)"
       id="pattern3868">
      <path
         id="path953-2"
         style="display:inline;fill:none;stroke:#000000;stroke-width:2;stroke-linecap:square;stroke-linejoin:miter;stroke-miterlimit:4;stroke-dasharray:none;stroke-opacity:1"
         d="m 16.506555,16.506558 c 0,2.527486 0,5.054972 0,7.582459 M 1.3416409,16.506558 c 0,2.527486 0,5.054972 0,7.582459 M 16.506557,16.506558 c 0,2.527486 0,5.054972 0,7.582459 M 1.3416409,16.506558 c 2.5274857,-1.263743 5.0549723,-2.527486 7.5824589,-3.791229 2.5274862,1.263743 5.0549702,2.527486 7.5824562,3.791229 M 8.9240998,5.1328707 c 0,2.5274861 0,5.0549723 0,7.5824583 M 1.3416409,1.3416415 C 3.8691266,2.6053846 6.3966132,3.8691276 8.9240998,5.1328707 11.451586,3.8691276 13.979071,2.6053846 16.506557,1.3416415" />
    </pattern>
  </defs>
  <sodipodi:namedview
     id="base"
     pagecolor="#ffffff"
     bordercolor="#666666"
     borderopacity="1.0"
     inkscape:pageopacity="0.0"
     inkscape:pageshadow="2"
     inkscape:zoom="2.1848495"
     inkscape:cx="2.9750333"
     inkscape:cy="83.072085"
     inkscape:document-units="mm"
     inkscape:current-layer="g841"
     inkscape:document-rotation="0"
     showgrid="false"
     units="px"
     inkscape:window-width="2560"
     inkscape:window-height="1003"
     inkscape:window-x="0"
     inkscape:window-y="309"
     inkscape:window-maximized="1"
     inkscape:pagecheckerboard="0">
    <inkscape:grid
       dotted="true"
       type="xygrid"
       id="grid12" />
    <sodipodi:guide
       position="0,67.733332"
       orientation="0,256"
       id="guide22" />
    <sodipodi:guide
       position="67.733332,67.733332"
       orientation="256,0"
       id="guide24" />
  </sodipodi:namedview>
  <metadata
     id="metadata5">
    <rdf:RDF>
      <cc:Work
         rdf:about="">
        <dc:format>image/svg+xml</dc:format>
        <dc:type
           rdf:resource="http://purl.org/dc/dcmitype/StillImage" />
      </cc:Work>
    </rdf:RDF>
  </metadata>
  <g
     inkscape:label="Layer 1"
     inkscape:groupmode="layer"
     id="layer1">
    <g
       id="g841"
       transform="matrix(2.1538598,0,0,2.1538608,-1.2211722,-1.2212256)"
       style="stroke-width:0.464282">
      <rect
         style="fill:#0f1a27;fill-opacity:1;stroke:none;stroke-width:0.281913;stroke-linecap:round;stroke-linejoin:round"
         id="rect842"
         width="15.72371"
         height="15.723702"
         x="-16.29068"
         y="0.56699383"
         transform="scale(-1,1)" />
      <circle
         style="display:inline;opacity:0.998;fill:#c85eff;fill-opacity:0.6;stroke:none;stroke-width:0.245683;stroke-linecap:round;stroke-linejoin:round;stroke-miterlimit:4;stroke-dasharray:none;stroke-opacity:1"
         id="path2034-7"
         cx="-13.37537"
         cy="20.112471"
         r="0"
         inkscape:export-xdpi="94.523079"
         inkscape:export-ydpi="94.523079"
         transform="scale(-1,1)" />
      <circle
         style="display:inline;opacity:0.998;fill:#c85eff;fill-opacity:0.6;stroke:none;stroke-width:0.245683;stroke-linecap:round;stroke-linejoin:round;stroke-miterlimit:4;stroke-dasharray:none;stroke-opacity:1"
         id="path2034-5"
         cx="-13.37537"
         cy="20.112471"
         r="0"
         inkscape:export-xdpi="94.523079"
         inkscape:export-ydpi="94.523079"
         transform="scale(-1,1)" />
      <circle
         style="display:inline;opacity:0.998;fill:#c85eff;fill-opacity:0.6;stroke:none;stroke-width:0.245683;stroke-linecap:round;stroke-linejoin:round;stroke-miterlimit:4;stroke-dasharray:none;stroke-opacity:1"
         id="path2034-3"
         cx="-13.37537"
         cy="20.112471"
         r="0"
         inkscape:export-xdpi="94.523079"
         inkscape:export-ydpi="94.523079"
         transform="scale(-1,1)" />
      <circle
         style="display:inline;opacity:0.998;fill:#c85eff;fill-opacity:0.6;stroke:none;stroke-width:0.245683;stroke-linecap:round;stroke-linejoin:round;stroke-miterlimit:4;stroke-dasharray:none;stroke-opacity:1"
         id="path2034-7-36"
         cx="-16.536938"
         cy="21.915462"
         r="0"
         inkscape:export-xdpi="94.523079"
         inkscape:export-ydpi="94.523079"
         transform="scale(-1,1)" />
      <circle
         style="display:inline;opacity:0.998;fill:#c85eff;fill-opacity:0.6;stroke:none;stroke-width:0.245683;stroke-linecap:round;stroke-linejoin:round;stroke-miterlimit:4;stroke-dasharray:none;stroke-opacity:1"
         id="path2034-5-7"
         cx="-16.536938"
         cy="21.915462"
         r="0"
         inkscape:export-xdpi="94.523079"
         inkscape:export-ydpi="94.523079"
         transform="scale(-1,1)" />
      <circle
         style="display:inline;opacity:0.998;fill:#c85eff;fill-opacity:0.6;stroke:none;stroke-width:0.245683;stroke-linecap:round;stroke-linejoin:round;stroke-miterlimit:4;stroke-dasharray:none;stroke-opacity:1"
         id="path2034-3-5"
         cx="-16.536938"
         cy="21.915462"
         r="0"
         inkscape:export-xdpi="94.523079"
         inkscape:export-ydpi="94.523079"
         transform="scale(-1,1)" />
      <circle
         style="display:inline;opacity:0.998;fill:#c85eff;fill-opacity:0.6;stroke:none;stroke-width:0.245683;stroke-linecap:round;stroke-linejoin:round;stroke-miterlimit:4;stroke-dasharray:none;stroke-opacity:1"
         id="path2034-7-6"
         cx="-16.536938"
         cy="-19.88945"
         r="0"
         inkscape:export-xdpi="94.523079"
         inkscape:export-ydpi="94.523079"
         transform="scale(-1)" />
      <circle
         style="display:inline;opacity:0.998;fill:#c85eff;fill-opacity:0.6;stroke:none;stroke-width:0.245683;stroke-linecap:round;stroke-linejoin:round;stroke-miterlimit:4;stroke-dasharray:none;stroke-opacity:1"
         id="path2034-5-2"
         cx="-16.536938"
         cy="-19.88945"
         r="0"
         inkscape:export-xdpi="94.523079"
         inkscape:export-ydpi="94.523079"
         transform="scale(-1)" />
      <circle
         style="display:inline;opacity:0.998;fill:#c85eff;fill-opacity:0.6;stroke:none;stroke-width:0.245683;stroke-linecap:round;stroke-linejoin:round;stroke-miterlimit:4;stroke-dasharray:none;stroke-opacity:1"
         id="path2034-3-9"
         cx="-16.536938"
         cy="-19.88945"
         r="0"
         inkscape:export-xdpi="94.523079"
         inkscape:export-ydpi="94.523079"
         transform="scale(-1)" />
      <g
         aria-label="100
%"
         id="text1855"
         style="font-style:italic;font-weight:bold;font-size:6.93133px;line-height:0.85;font-family:Rubik;-inkscape-font-specification:'Rubik Bold Italic';opacity:1;vector-effect:none;fill:#0f1a27;stroke:#ff1690;stroke-width:0.245683;stop-color:#000000;stop-opacity:1">
        <path
           d="m 3.3525816,7.8916669 q -0.076245,0 -0.1178326,-0.048519 -0.041588,-0.055451 -0.027725,-0.124764 L 3.8932254,4.5022464 2.8327319,5.1953794 q -0.076245,0.048519 -0.1386266,0.034657 -0.062382,-0.013863 -0.097039,-0.076245 L 2.2712941,4.5715597 q -0.020794,-0.062382 0,-0.1316953 0.027725,-0.076245 0.10397,-0.1178326 L 4.2328606,3.0882551 q 0.048519,-0.027725 0.076245,-0.034657 0.034657,-0.013863 0.090107,-0.013863 h 0.8733476 q 0.076245,0 0.1178326,0.048519 0.041588,0.048519 0.027725,0.1247639 L 4.4546631,7.7183836 q -0.013863,0.069313 -0.076245,0.124764 -0.055451,0.048519 -0.1316953,0.048519 z"
           style="text-align:center;text-anchor:middle;vector-effect:none;stop-color:#000000;stop-opacity:1"
           id="path19722" />
        <path
           d="M 7.3103675,7.9609802 Q 6.7004105,7.9540489 6.291462,7.7391776 5.8825135,7.5173751 5.7022989,7.1084266 5.5290157,6.6925468 5.6121916,6.131109 5.6468483,5.9370318 5.6884363,5.7013665 5.7369556,5.45877 5.7924062,5.2231048 5.8478569,4.9805082 5.9033075,4.7794996 6.0488654,4.2180619 6.33305,3.8160447 6.6241658,3.4140276 7.0747023,3.192225 7.5321701,2.9704224 8.1629211,2.9704224 q 0.5891631,0 1.0050429,0.2218026 0.4158798,0.2218026 0.6030258,0.6238197 0.1871459,0.4020172 0.097039,0.9634549 Q 9.8333717,4.9805082 9.7848524,5.2231048 9.7363331,5.45877 9.6808825,5.7013665 9.6323631,5.9370318 9.5769125,6.131109 9.4313546,6.6925468 9.14717,7.1084266 8.8629855,7.5173751 8.412449,7.7391776 7.9619126,7.9540489 7.3103675,7.9609802 Z m 0.090107,-1.0050429 q 0.3534979,0 0.5683691,-0.2148712 Q 8.1906465,6.5261948 8.2946164,6.0964524 8.3500671,5.8954438 8.3985864,5.6805726 8.4471057,5.45877 8.4886937,5.2369674 8.537213,5.0151649 8.5649383,4.8210876 8.6411829,4.3982765 8.537213,4.1834052 8.433243,3.968534 8.0728139,3.9616027 7.7123847,3.968534 7.4975134,4.1834052 7.2895735,4.3982765 7.1856036,4.8210876 7.1370843,5.0151649 7.0816336,5.2369674 7.0331143,5.45877 6.9915263,5.6805726 6.9499384,5.8954438 6.9083504,6.0964524 6.8390371,6.5261948 6.943007,6.7410661 7.0539083,6.9559373 7.4004748,6.9559373 Z"
           style="text-align:center;text-anchor:middle;vector-effect:none;stop-color:#000000;stop-opacity:1"
           id="path19724" />
        <path
           d="M 12.009806,7.9609802 Q 11.399849,7.9540489 10.990901,7.7391776 10.581952,7.5173751 10.401738,7.1084266 10.228454,6.6925468 10.31163,6.131109 q 0.03466,-0.1940772 0.07625,-0.4297425 0.04852,-0.2425965 0.10397,-0.4782617 0.05545,-0.2425966 0.110901,-0.4436052 0.145558,-0.5614377 0.429743,-0.9634549 0.291116,-0.4020171 0.741652,-0.6238197 0.457468,-0.2218026 1.088219,-0.2218026 0.589163,0 1.005043,0.2218026 0.41588,0.2218026 0.603026,0.6238197 0.187145,0.4020172 0.09704,0.9634549 -0.03466,0.2010086 -0.08318,0.4436052 -0.04852,0.2356652 -0.10397,0.4782617 -0.04852,0.2356653 -0.10397,0.4297425 -0.145558,0.5614378 -0.429742,0.9773176 -0.284185,0.4089485 -0.734721,0.630751 -0.450537,0.2148713 -1.102082,0.2218026 z m 0.09011,-1.0050429 q 0.353497,0 0.568369,-0.2148712 0.221802,-0.2148713 0.325772,-0.6446137 0.05545,-0.2010086 0.10397,-0.4158798 0.04852,-0.2218026 0.09011,-0.4436052 0.04852,-0.2218025 0.07625,-0.4158798 0.07625,-0.4228111 -0.02773,-0.6376824 -0.10397,-0.2148712 -0.464399,-0.2218025 -0.36043,0.00693 -0.575301,0.2218025 -0.20794,0.2148713 -0.31191,0.6376824 -0.04852,0.1940773 -0.10397,0.4158798 -0.04852,0.2218026 -0.09011,0.4436052 -0.04159,0.2148712 -0.08318,0.4158798 -0.06931,0.4297424 0.03466,0.6446137 0.110901,0.2148712 0.457468,0.2148712 z"
           style="text-align:center;text-anchor:middle;vector-effect:none;stop-color:#000000;stop-opacity:1"
           id="path19726" />
        <path
           d="m 5.8201322,13.783298 q -0.10397,0 -0.1316953,-0.06931 -0.020794,-0.07624 0.041588,-0.145558 L 10.110626,9.0630619 q 0.06238,-0.062382 0.117832,-0.097039 0.05545,-0.034657 0.152489,-0.034657 h 0.533713 q 0.09704,0 0.124764,0.076245 0.03466,0.069313 -0.04159,0.1386266 L 6.6241665,13.651602 q -0.062382,0.06238 -0.1178326,0.09704 -0.055451,0.03466 -0.1524893,0.03466 z m 3.6666737,0.03466 q -0.2841846,0 -0.5129185,-0.117832 -0.2218025,-0.117833 -0.3327038,-0.325773 -0.1109013,-0.214871 -0.076245,-0.492124 0.020794,-0.180215 0.055451,-0.318841 0.034657,-0.138627 0.083176,-0.332704 0.1178327,-0.41588 0.3950859,-0.658477 0.2841845,-0.249527 0.8040343,-0.249527 0.3049783,0 0.5267813,0.124763 0.221802,0.117833 0.332704,0.332704 0.110901,0.20794 0.06238,0.485193 -0.02773,0.194078 -0.05545,0.332704 -0.02773,0.138627 -0.08318,0.318841 -0.110901,0.41588 -0.408948,0.658477 -0.2911164,0.242596 -0.7901721,0.242596 z m 0.055451,-0.609957 q 0.1732833,0 0.2703219,-0.10397 0.1039699,-0.110901 0.1386266,-0.242596 0.048519,-0.159421 0.076245,-0.291116 0.02773,-0.131695 0.04159,-0.284185 0.02079,-0.09011 0.0069,-0.166352 -0.01386,-0.07624 -0.06931,-0.124763 -0.04852,-0.05545 -0.1663523,-0.05545 -0.1802146,0 -0.2772532,0.110901 -0.097039,0.10397 -0.1316953,0.235665 -0.041588,0.15249 -0.069313,0.284185 -0.027725,0.131695 -0.048519,0.291116 -0.013863,0.08318 0,0.166352 0.013863,0.07624 0.069313,0.131695 0.055451,0.04852 0.1594206,0.04852 z M 6.8390377,11.391989 q -0.2841845,0 -0.5059871,-0.117833 Q 6.1112481,11.156324 5.9934154,10.948384 5.8825142,10.733512 5.9171708,10.456259 5.9448961,10.276045 5.9795528,10.137418 6.0142094,9.9987914 6.0627287,9.8047142 6.17363,9.381903 6.4508832,9.1393065 6.7350678,8.8967099 7.2549175,8.8967099 q 0.3049786,0 0.5267811,0.1178326 0.2287339,0.1178327 0.3327039,0.3327039 0.1109013,0.2079399 0.069313,0.4921244 -0.027725,0.1940772 -0.062382,0.3327042 -0.027725,0.138626 -0.076245,0.318841 -0.1178326,0.41588 -0.4089485,0.658476 -0.2911159,0.242597 -0.797103,0.242597 z M 6.8944884,10.7751 q 0.1732832,0 0.2703218,-0.10397 0.10397,-0.103969 0.145558,-0.235665 0.041588,-0.15942 0.069313,-0.291116 0.027725,-0.131695 0.048519,-0.2841842 0.020794,-0.090107 0.00693,-0.1663519 -0.013863,-0.083176 -0.069313,-0.1316953 -0.048519,-0.048519 -0.1663519,-0.048519 -0.1802146,0 -0.2772532,0.1109013 -0.097039,0.10397 -0.1386266,0.2356652 -0.041588,0.1524892 -0.069313,0.2841842 -0.027725,0.131696 -0.048519,0.291116 -0.00693,0.08318 0,0.166352 0.013863,0.07625 0.069313,0.124764 0.055451,0.04852 0.1594206,0.04852 z"
           style="text-align:center;text-anchor:middle;vector-effect:none;stop-color:#000000;stop-opacity:1"
           id="path19728" />
      </g>
    </g>
  </g>
  <style
     id="style837" />
</svg>
