<?xml version="1.0" encoding="UTF-8" standalone="no"?>
<svg
   width="128"
   height="128"
   viewBox="0 0 33.866667 33.866667"
   version="1.1"
   id="svg8"
   inkscape:version="1.1.1 (3bf5ae0d25, 2021-09-20)"
   sodipodi:docname="hat_trick.svg"
   xmlns:inkscape="http://www.inkscape.org/namespaces/inkscape"
   xmlns:sodipodi="http://sodipodi.sourceforge.net/DTD/sodipodi-0.dtd"
   xmlns="http://www.w3.org/2000/svg"
   xmlns:svg="http://www.w3.org/2000/svg"
   xmlns:rdf="http://www.w3.org/1999/02/22-rdf-syntax-ns#"
   xmlns:cc="http://creativecommons.org/ns#"
   xmlns:dc="http://purl.org/dc/elements/1.1/">
  <style
     id="style10" />
  <defs
     id="defs2">
    <pattern
       patternUnits="userSpaceOnUse"
       width="17.848198"
       height="25.089017"
       patternTransform="translate(18.306965,145.66037)"
       id="pattern3868">
      <path
         id="path953-2"
         style="display:inline;fill:none;stroke:#000000;stroke-width:2;stroke-linecap:square;stroke-linejoin:miter;stroke-miterlimit:4;stroke-dasharray:none;stroke-opacity:1"
         d="m 16.506555,16.506558 c 0,2.527486 0,5.054972 0,7.582459 M 1.3416409,16.506558 c 0,2.527486 0,5.054972 0,7.582459 M 16.506557,16.506558 c 0,2.527486 0,5.054972 0,7.582459 M 1.3416409,16.506558 c 2.5274857,-1.263743 5.0549723,-2.527486 7.5824589,-3.791229 2.5274862,1.263743 5.0549702,2.527486 7.5824562,3.791229 M 8.9240998,5.1328707 c 0,2.5274861 0,5.0549723 0,7.5824583 M 1.3416409,1.3416415 C 3.8691266,2.6053846 6.3966132,3.8691276 8.9240998,5.1328707 11.451586,3.8691276 13.979071,2.6053846 16.506557,1.3416415" />
    </pattern>
  </defs>
  <sodipodi:namedview
     id="base"
     pagecolor="#ffffff"
     bordercolor="#666666"
     borderopacity="1.0"
     inkscape:pageopacity="0.0"
     inkscape:pageshadow="2"
     inkscape:zoom="4.3696989"
     inkscape:cx="50.91884"
     inkscape:cy="60.072788"
     inkscape:document-units="mm"
     inkscape:current-layer="g841"
     inkscape:document-rotation="0"
     showgrid="false"
     units="px"
     inkscape:window-width="2560"
     inkscape:window-height="1003"
     inkscape:window-x="0"
     inkscape:window-y="309"
     inkscape:window-maximized="1"
     inkscape:pagecheckerboard="0">
    <inkscape:grid
       dotted="true"
       type="xygrid"
       id="grid12" />
    <sodipodi:guide
       position="0,67.733332"
       orientation="0,256"
       id="guide22" />
    <sodipodi:guide
       position="67.733332,67.733332"
       orientation="256,0"
       id="guide24" />
  </sodipodi:namedview>
  <metadata
     id="metadata5">
    <rdf:RDF>
      <cc:Work
         rdf:about="">
        <dc:format>image/svg+xml</dc:format>
        <dc:type
           rdf:resource="http://purl.org/dc/dcmitype/StillImage" />
      </cc:Work>
    </rdf:RDF>
  </metadata>
  <g
     inkscape:label="Layer 1"
     inkscape:groupmode="layer"
     id="layer1">
    <g
       id="g841"
       transform="matrix(2.1538598,0,0,2.1538608,-1.2211722,-1.2212256)"
       style="stroke-width:0.464282">
      <rect
         style="fill:#0f1a27;fill-opacity:1;stroke:none;stroke-width:0.281913;stroke-linecap:round;stroke-linejoin:round"
         id="rect842"
         width="15.72371"
         height="15.723702"
         x="0.56696916"
         y="0.56699383" />
      <circle
         style="display:inline;opacity:0.998;fill:#c85eff;fill-opacity:0.6;stroke:none;stroke-width:0.24568291;stroke-linecap:round;stroke-linejoin:round;stroke-miterlimit:4;stroke-dasharray:none;stroke-opacity:1"
         id="path2034-7"
         cx="3.4822779"
         cy="20.112471"
         r="0"
         inkscape:export-xdpi="94.523079"
         inkscape:export-ydpi="94.523079" />
      <circle
         style="display:inline;opacity:0.998;fill:#c85eff;fill-opacity:0.6;stroke:none;stroke-width:0.24568291;stroke-linecap:round;stroke-linejoin:round;stroke-miterlimit:4;stroke-dasharray:none;stroke-opacity:1"
         id="path2034-5"
         cx="3.4822779"
         cy="20.112471"
         r="0"
         inkscape:export-xdpi="94.523079"
         inkscape:export-ydpi="94.523079" />
      <circle
         style="display:inline;opacity:0.998;fill:#c85eff;fill-opacity:0.6;stroke:none;stroke-width:0.24568291;stroke-linecap:round;stroke-linejoin:round;stroke-miterlimit:4;stroke-dasharray:none;stroke-opacity:1"
         id="path2034-3"
         cx="3.4822779"
         cy="20.112471"
         r="0"
         inkscape:export-xdpi="94.523079"
         inkscape:export-ydpi="94.523079" />
      <circle
         style="display:inline;opacity:0.998;fill:#c85eff;fill-opacity:0.6;stroke:none;stroke-width:0.24568291;stroke-linecap:round;stroke-linejoin:round;stroke-miterlimit:4;stroke-dasharray:none;stroke-opacity:1"
         id="path2034-7-36"
         cx="0.32071"
         cy="21.915462"
         r="0"
         inkscape:export-xdpi="94.523079"
         inkscape:export-ydpi="94.523079" />
      <circle
         style="display:inline;opacity:0.998;fill:#c85eff;fill-opacity:0.6;stroke:none;stroke-width:0.24568291;stroke-linecap:round;stroke-linejoin:round;stroke-miterlimit:4;stroke-dasharray:none;stroke-opacity:1"
         id="path2034-5-7"
         cx="0.32071"
         cy="21.915462"
         r="0"
         inkscape:export-xdpi="94.523079"
         inkscape:export-ydpi="94.523079" />
      <circle
         style="display:inline;opacity:0.998;fill:#c85eff;fill-opacity:0.6;stroke:none;stroke-width:0.24568291;stroke-linecap:round;stroke-linejoin:round;stroke-miterlimit:4;stroke-dasharray:none;stroke-opacity:1"
         id="path2034-3-5"
         cx="0.32071"
         cy="21.915462"
         r="0"
         inkscape:export-xdpi="94.523079"
         inkscape:export-ydpi="94.523079" />
      <circle
         style="display:inline;opacity:0.998;fill:#c85eff;fill-opacity:0.6;stroke:none;stroke-width:0.24568291;stroke-linecap:round;stroke-linejoin:round;stroke-miterlimit:4;stroke-dasharray:none;stroke-opacity:1"
         id="path2034-7-6"
         cx="0.32071"
         cy="-19.88945"
         r="0"
         inkscape:export-xdpi="94.523079"
         inkscape:export-ydpi="94.523079"
         transform="scale(1,-1)" />
      <circle
         style="display:inline;opacity:0.998;fill:#c85eff;fill-opacity:0.6;stroke:none;stroke-width:0.24568291;stroke-linecap:round;stroke-linejoin:round;stroke-miterlimit:4;stroke-dasharray:none;stroke-opacity:1"
         id="path2034-5-2"
         cx="0.32071"
         cy="-19.88945"
         r="0"
         inkscape:export-xdpi="94.523079"
         inkscape:export-ydpi="94.523079"
         transform="scale(1,-1)" />
      <circle
         style="display:inline;opacity:0.998;fill:#c85eff;fill-opacity:0.6;stroke:none;stroke-width:0.24568291;stroke-linecap:round;stroke-linejoin:round;stroke-miterlimit:4;stroke-dasharray:none;stroke-opacity:1"
         id="path2034-3-9"
         cx="0.32071"
         cy="-19.88945"
         r="0"
         inkscape:export-xdpi="94.523079"
         inkscape:export-ydpi="94.523079"
         transform="scale(1,-1)" />
      <path
         d="m 23.396156,7.879593 h 8.618232 v 8.618229 h -8.618232 z"
         fill="none"
         id="path936"
         style="stroke-width:0.16672" />
      <g
         aria-label="3"
         id="text2205"
         style="font-style:italic;font-weight:bold;font-size:16.634px;line-height:1.25;font-family:Rubik;-inkscape-font-specification:'Rubik Bold Italic';font-variation-settings:normal;opacity:1;vector-effect:none;fill:#0f1a27;fill-opacity:1;stroke:#ff1690;stroke-width:0.263857;stroke-linecap:butt;stroke-linejoin:miter;stroke-miterlimit:4;stroke-dasharray:none;stroke-dashoffset:0;stroke-opacity:1;-inkscape-stroke:none;stop-color:#000000;stop-opacity:1"
         transform="matrix(0.88522015,0,0,0.88522015,12.661841,1.2281273)">
        <path
           d="m -6.0110408,14.039447 q -1.2808181,0 -2.1457861,-0.299412 -0.8483341,-0.316046 -1.3307201,-0.798432 -0.465752,-0.49902 -0.632092,-1.047942 -0.16634,-0.565556 -0.08317,-1.08121 0.03327,-0.149706 0.149706,-0.24951 0.133072,-0.0998 0.282778,-0.0998 h 2.1790541 q 0.199608,0 0.299412,0.08317 0.099804,0.06654 0.16634,0.232876 0.049902,0.316046 0.266144,0.515654 0.216242,0.199608 0.565556,0.282778 0.3659481,0.06654 0.7984321,0.06654 0.848334,0 1.397256,-0.382582 0.5489221,-0.399216 0.6986281,-1.08121 0.149706,-0.7152622 -0.232876,-1.0146743 -0.3825821,-0.316046 -1.1976481,-0.316046 h -1.8463741 q -0.182974,0 -0.282778,-0.116438 -0.099804,-0.116438 -0.049902,-0.299412 l 0.182974,-0.931504 q 0.049902,-0.1996081 0.16634,-0.3493141 0.116438,-0.149706 0.232876,-0.216242 l 3.2103622,-2.3121261 h -4.6076182 q -0.182974,0 -0.282778,-0.116438 -0.08317,-0.116438 -0.049902,-0.299412 l 0.33268,-1.5635961 q 0.033268,-0.182974 0.182974,-0.299412 0.149706,-0.116438 0.316046,-0.116438 h 7.65164035 q 0.18297401,0 0.26614401,0.116438 0.099804,0.116438 0.066536,0.299412 L 0.35978145,4.0590465 q -0.033268,0.182974 -0.149706,0.33268 -0.099804,0.133072 -0.21624201,0.216242 l -3.04402214,2.3453941 0.133072,0.033268 q 0.91487,0.116438 1.5802301,0.4990201 0.66536001,0.382582 0.94813802,1.097844 0.28277801,0.698628 0.049902,1.7798383 -0.24951001,1.131112 -1.06457602,1.962812 -0.7984321,0.815066 -1.9960801,1.264184 -1.1976481,0.449118 -2.6115381,0.449118 z"
           id="path2767"
           style="font-variation-settings:normal;vector-effect:none;fill:#0f1a27;fill-opacity:1;stroke:#ff1690;stroke-width:0.263857;stroke-linecap:butt;stroke-linejoin:miter;stroke-miterlimit:4;stroke-dasharray:none;stroke-dashoffset:0;stroke-opacity:1;-inkscape-stroke:none;stop-color:#000000;stop-opacity:1" />
      </g>
    </g>
  </g>
  <style
     id="style837" />
</svg>
