<?xml version="1.0" encoding="UTF-8" standalone="no"?>
<svg
   width="128"
   height="128"
   viewBox="0 0 33.866667 33.866667"
   version="1.1"
   id="svg8"
   inkscape:version="1.1.1 (3bf5ae0d25, 2021-09-20)"
   sodipodi:docname="rogueliker.svg"
   xmlns:inkscape="http://www.inkscape.org/namespaces/inkscape"
   xmlns:sodipodi="http://sodipodi.sourceforge.net/DTD/sodipodi-0.dtd"
   xmlns="http://www.w3.org/2000/svg"
   xmlns:svg="http://www.w3.org/2000/svg"
   xmlns:rdf="http://www.w3.org/1999/02/22-rdf-syntax-ns#"
   xmlns:cc="http://creativecommons.org/ns#"
   xmlns:dc="http://purl.org/dc/elements/1.1/">
  <style
     id="style10" />
  <defs
     id="defs2">
    <pattern
       patternUnits="userSpaceOnUse"
       width="17.848198"
       height="25.089017"
       patternTransform="translate(18.306965,145.66037)"
       id="pattern3868">
      <path
         id="path953-2"
         style="display:inline;fill:none;stroke:#000000;stroke-width:2;stroke-linecap:square;stroke-linejoin:miter;stroke-miterlimit:4;stroke-dasharray:none;stroke-opacity:1"
         d="m 16.506555,16.506558 c 0,2.527486 0,5.054972 0,7.582459 M 1.3416409,16.506558 c 0,2.527486 0,5.054972 0,7.582459 M 16.506557,16.506558 c 0,2.527486 0,5.054972 0,7.582459 M 1.3416409,16.506558 c 2.5274857,-1.263743 5.0549723,-2.527486 7.5824589,-3.791229 2.5274862,1.263743 5.0549702,2.527486 7.5824562,3.791229 M 8.9240998,5.1328707 c 0,2.5274861 0,5.0549723 0,7.5824583 M 1.3416409,1.3416415 C 3.8691266,2.6053846 6.3966132,3.8691276 8.9240998,5.1328707 11.451586,3.8691276 13.979071,2.6053846 16.506557,1.3416415" />
    </pattern>
  </defs>
  <sodipodi:namedview
     id="base"
     pagecolor="#ffffff"
     bordercolor="#666666"
     borderopacity="1.0"
     inkscape:pageopacity="0.0"
     inkscape:pageshadow="2"
     inkscape:zoom="6.1796875"
     inkscape:cx="64"
     inkscape:cy="64"
     inkscape:document-units="mm"
     inkscape:current-layer="g841"
     inkscape:document-rotation="0"
     showgrid="false"
     units="px"
     inkscape:window-width="2560"
     inkscape:window-height="1003"
     inkscape:window-x="0"
     inkscape:window-y="309"
     inkscape:window-maximized="1"
     inkscape:pagecheckerboard="0">
    <inkscape:grid
       dotted="true"
       type="xygrid"
       id="grid12" />
    <sodipodi:guide
       position="0,67.733332"
       orientation="0,256"
       id="guide22" />
    <sodipodi:guide
       position="67.733332,67.733332"
       orientation="256,0"
       id="guide24" />
  </sodipodi:namedview>
  <metadata
     id="metadata5">
    <rdf:RDF>
      <cc:Work
         rdf:about="">
        <dc:format>image/svg+xml</dc:format>
        <dc:type
           rdf:resource="http://purl.org/dc/dcmitype/StillImage" />
      </cc:Work>
    </rdf:RDF>
  </metadata>
  <g
     inkscape:label="Layer 1"
     inkscape:groupmode="layer"
     id="layer1">
    <g
       id="g841"
       transform="matrix(2.1538598,0,0,2.1538608,-1.2211722,-1.2212256)"
       style="stroke-width:0.464282">
      <rect
         style="fill:#0f1a27;fill-opacity:1;stroke:none;stroke-width:0.281913;stroke-linecap:round;stroke-linejoin:round"
         id="rect842"
         width="15.72371"
         height="15.723702"
         x="0.56696916"
         y="0.56699383" />
      <circle
         style="display:inline;opacity:0.998;fill:#c85eff;fill-opacity:0.6;stroke:none;stroke-width:0.24568291;stroke-linecap:round;stroke-linejoin:round;stroke-miterlimit:4;stroke-dasharray:none;stroke-opacity:1"
         id="path2034-7"
         cx="3.4822779"
         cy="20.112471"
         r="0"
         inkscape:export-xdpi="94.523079"
         inkscape:export-ydpi="94.523079" />
      <circle
         style="display:inline;opacity:0.998;fill:#c85eff;fill-opacity:0.6;stroke:none;stroke-width:0.24568291;stroke-linecap:round;stroke-linejoin:round;stroke-miterlimit:4;stroke-dasharray:none;stroke-opacity:1"
         id="path2034-5"
         cx="3.4822779"
         cy="20.112471"
         r="0"
         inkscape:export-xdpi="94.523079"
         inkscape:export-ydpi="94.523079" />
      <circle
         style="display:inline;opacity:0.998;fill:#c85eff;fill-opacity:0.6;stroke:none;stroke-width:0.24568291;stroke-linecap:round;stroke-linejoin:round;stroke-miterlimit:4;stroke-dasharray:none;stroke-opacity:1"
         id="path2034-3"
         cx="3.4822779"
         cy="20.112471"
         r="0"
         inkscape:export-xdpi="94.523079"
         inkscape:export-ydpi="94.523079" />
      <circle
         style="display:inline;opacity:0.998;fill:#c85eff;fill-opacity:0.6;stroke:none;stroke-width:0.24568291;stroke-linecap:round;stroke-linejoin:round;stroke-miterlimit:4;stroke-dasharray:none;stroke-opacity:1"
         id="path2034-7-36"
         cx="0.32071"
         cy="21.915462"
         r="0"
         inkscape:export-xdpi="94.523079"
         inkscape:export-ydpi="94.523079" />
      <circle
         style="display:inline;opacity:0.998;fill:#c85eff;fill-opacity:0.6;stroke:none;stroke-width:0.24568291;stroke-linecap:round;stroke-linejoin:round;stroke-miterlimit:4;stroke-dasharray:none;stroke-opacity:1"
         id="path2034-5-7"
         cx="0.32071"
         cy="21.915462"
         r="0"
         inkscape:export-xdpi="94.523079"
         inkscape:export-ydpi="94.523079" />
      <circle
         style="display:inline;opacity:0.998;fill:#c85eff;fill-opacity:0.6;stroke:none;stroke-width:0.24568291;stroke-linecap:round;stroke-linejoin:round;stroke-miterlimit:4;stroke-dasharray:none;stroke-opacity:1"
         id="path2034-3-5"
         cx="0.32071"
         cy="21.915462"
         r="0"
         inkscape:export-xdpi="94.523079"
         inkscape:export-ydpi="94.523079" />
      <circle
         style="display:inline;opacity:0.998;fill:#c85eff;fill-opacity:0.6;stroke:none;stroke-width:0.24568291;stroke-linecap:round;stroke-linejoin:round;stroke-miterlimit:4;stroke-dasharray:none;stroke-opacity:1"
         id="path2034-7-6"
         cx="0.32071"
         cy="-19.88945"
         r="0"
         inkscape:export-xdpi="94.523079"
         inkscape:export-ydpi="94.523079"
         transform="scale(1,-1)" />
      <circle
         style="display:inline;opacity:0.998;fill:#c85eff;fill-opacity:0.6;stroke:none;stroke-width:0.24568291;stroke-linecap:round;stroke-linejoin:round;stroke-miterlimit:4;stroke-dasharray:none;stroke-opacity:1"
         id="path2034-5-2"
         cx="0.32071"
         cy="-19.88945"
         r="0"
         inkscape:export-xdpi="94.523079"
         inkscape:export-ydpi="94.523079"
         transform="scale(1,-1)" />
      <circle
         style="display:inline;opacity:0.998;fill:#c85eff;fill-opacity:0.6;stroke:none;stroke-width:0.24568291;stroke-linecap:round;stroke-linejoin:round;stroke-miterlimit:4;stroke-dasharray:none;stroke-opacity:1"
         id="path2034-3-9"
         cx="0.32071"
         cy="-19.88945"
         r="0"
         inkscape:export-xdpi="94.523079"
         inkscape:export-ydpi="94.523079"
         transform="scale(1,-1)" />
      <path
         d="m -11.899402,4.5777743 h 2.9481955 v 2.9481943 h -2.9481955 z"
         fill="none"
         id="path862"
         style="stroke-width:0.0570331" />
      <path
         d="m 8.4288249,4.5619867 c -2.134507,0 -3.866861,1.7323527 -3.866861,3.8668587 0,2.1345046 1.732354,3.8668576 3.866861,3.8668576 H 10.362254 V 11.522331 H 8.4288249 c -1.678217,0 -3.093489,-1.41527 -3.093489,-3.0934856 0,-1.678217 1.415272,-3.093487 3.093489,-3.093487 1.6782161,0 3.0934871,1.41527 3.0934871,3.093487 v 0.55296 c 0,0.305483 -0.274549,0.607097 -0.580029,0.607097 -0.305483,0 -0.580029,-0.301614 -0.580029,-0.607097 v -0.55296 c 0,-1.067253 -0.8661781,-1.93343 -1.9334291,-1.93343 -1.067255,0 -1.933432,0.866177 -1.933432,1.93343 0,1.067252 0.866177,1.9334286 1.933432,1.9334286 0.533626,0 1.020849,-0.216544 1.368867,-0.5684276 0.2513461,0.3441496 0.6844341,0.5684276 1.1445911,0.5684276 0.761771,0 1.353401,-0.6186976 1.353401,-1.3804686 v -0.55296 c 0,-2.134506 -1.732354,-3.8668587 -3.8668591,-3.8668587 z m 0,5.0269157 c -0.6419,0 -1.16006,-0.518159 -1.16006,-1.160057 0,-0.641899 0.51816,-1.160058 1.16006,-1.160058 0.641899,0 1.160056,0.518159 1.160056,1.160058 0,0.641898 -0.518157,1.160057 -1.160056,1.160057 z"
         id="path880"
         style="font-variation-settings:normal;opacity:1;vector-effect:none;fill:#0f1a27;fill-opacity:1;stroke:#ff1690;stroke-width:0.2266;stroke-linecap:butt;stroke-linejoin:miter;stroke-miterlimit:4;stroke-dasharray:none;stroke-dashoffset:0;stroke-opacity:1;stop-color:#000000;stop-opacity:1" />
    </g>
  </g>
  <style
     id="style837" />
</svg>
