<?xml version="1.0" encoding="UTF-8" standalone="no"?>
<svg
   inkscape:export-ydpi="96"
   inkscape:export-xdpi="96"
   inkscape:export-filename="/home/ehmprah/dev/paint-it-black/assets/cylinder.png"
   sodipodi:docname="triode.svg"
   inkscape:version="1.1.1 (3bf5ae0d25, 2021-09-20)"
   id="svg8"
   version="1.1"
   viewBox="0 0 33.866666 33.866668"
   height="128"
   width="128"
   xmlns:inkscape="http://www.inkscape.org/namespaces/inkscape"
   xmlns:sodipodi="http://sodipodi.sourceforge.net/DTD/sodipodi-0.dtd"
   xmlns:xlink="http://www.w3.org/1999/xlink"
   xmlns="http://www.w3.org/2000/svg"
   xmlns:svg="http://www.w3.org/2000/svg"
   xmlns:rdf="http://www.w3.org/1999/02/22-rdf-syntax-ns#"
   xmlns:cc="http://creativecommons.org/ns#"
   xmlns:dc="http://purl.org/dc/elements/1.1/">
  <defs
     id="defs2">
    <linearGradient
       inkscape:collect="always"
       id="linearGradient894">
      <stop
         style="stop-color:#999999;stop-opacity:0.80000001"
         offset="0"
         id="stop890" />
      <stop
         style="stop-color:#ffffff;stop-opacity:0.80000001"
         offset="1"
         id="stop892" />
    </linearGradient>
    <linearGradient
       inkscape:collect="always"
       xlink:href="#linearGradient894"
       id="linearGradient896"
       x1="29.419487"
       y1="21.058836"
       x2="4.0194855"
       y2="21.058836"
       gradientUnits="userSpaceOnUse"
       gradientTransform="matrix(0.66666664,0,0,0.66666664,5.6444474,8.4666683)" />
    <linearGradient
       inkscape:collect="always"
       xlink:href="#linearGradient894"
       id="linearGradient885"
       gradientUnits="userSpaceOnUse"
       gradientTransform="matrix(0.66666664,0,0,0.66666664,5.6444474,8.4666683)"
       x1="29.419487"
       y1="21.058836"
       x2="4.0194855"
       y2="21.058836" />
    <linearGradient
       inkscape:collect="always"
       xlink:href="#linearGradient894"
       id="linearGradient878"
       gradientUnits="userSpaceOnUse"
       gradientTransform="matrix(0.66666664,0,0,0.66666664,5.6444474,8.4666683)"
       x1="29.419487"
       y1="21.058836"
       x2="4.0194855"
       y2="21.058836" />
  </defs>
  <sodipodi:namedview
     id="base"
     pagecolor="#999999"
     bordercolor="#666666"
     borderopacity="1.0"
     inkscape:pageopacity="1"
     inkscape:pageshadow="2"
     inkscape:zoom="6.1796875"
     inkscape:cx="64"
     inkscape:cy="64"
     inkscape:document-units="px"
     inkscape:current-layer="layer1"
     inkscape:document-rotation="0"
     showgrid="true"
     units="px"
     inkscape:window-width="2560"
     inkscape:window-height="1003"
     inkscape:window-x="0"
     inkscape:window-y="309"
     inkscape:window-maximized="1"
     inkscape:pagecheckerboard="0">
    <inkscape:grid
       type="xygrid"
       id="grid7161"
       dotted="true"
       spacingx="2.1166667"
       spacingy="2.1166667"
       snapvisiblegridlinesonly="true"
       enabled="true" />
  </sodipodi:namedview>
  <metadata
     id="metadata5">
    <rdf:RDF>
      <cc:Work
         rdf:about="">
        <dc:format>image/svg+xml</dc:format>
        <dc:type
           rdf:resource="http://purl.org/dc/dcmitype/StillImage" />
      </cc:Work>
    </rdf:RDF>
  </metadata>
  <g
     inkscape:label="Layer 1"
     inkscape:groupmode="layer"
     id="layer1"
     style="display:inline">
    <g
       id="g877"
       transform="matrix(0.99718782,0,0,0.99719518,0.02951432,0.07921592)"
       style="stroke-width:1.00282">
      <g
         id="g867"
         transform="matrix(0.75877944,0,0,0.75877944,4.0847198,5.7494951)"
         style="stroke-width:1.00282">
        <path
           id="path889"
           style="fill:none;fill-opacity:0.8;stroke:#ffffff;stroke-width:0.198996;stroke-linecap:round;stroke-linejoin:round;stroke-miterlimit:4;stroke-dasharray:none;stroke-opacity:1"
           d="m 25.4,25.4 c 0,-1.512424 -1.613737,-2.909962 -4.233333,-3.666174 -2.619596,-0.756212 -5.847071,-0.756212 -8.466666,0 C 10.080405,22.490038 8.4666684,23.887576 8.4666684,25.4"
           sodipodi:nodetypes="cssc" />
        <circle
           style="display:inline;opacity:0.998;fill:#c85eff;fill-opacity:0.6;stroke:none;stroke-width:0.198996;stroke-linecap:round;stroke-linejoin:round;stroke-miterlimit:4;stroke-dasharray:none;stroke-opacity:1"
           id="path2034-7"
           cx="3.2074656"
           cy="29.563335"
           r="0"
           inkscape:export-xdpi="94.523079"
           inkscape:export-ydpi="94.523079" />
        <circle
           style="display:inline;opacity:0.998;fill:#c85eff;fill-opacity:0.6;stroke:none;stroke-width:0.198996;stroke-linecap:round;stroke-linejoin:round;stroke-miterlimit:4;stroke-dasharray:none;stroke-opacity:1"
           id="path2034-5"
           cx="3.2074656"
           cy="29.563335"
           r="0"
           inkscape:export-xdpi="94.523079"
           inkscape:export-ydpi="94.523079" />
        <circle
           style="display:inline;opacity:0.998;fill:#c85eff;fill-opacity:0.6;stroke:none;stroke-width:0.198996;stroke-linecap:round;stroke-linejoin:round;stroke-miterlimit:4;stroke-dasharray:none;stroke-opacity:1"
           id="path2034-3"
           cx="3.2074656"
           cy="29.563335"
           r="0"
           inkscape:export-xdpi="94.523079"
           inkscape:export-ydpi="94.523079" />
        <path
           style="fill:url(#linearGradient896);fill-opacity:1;stroke:none;stroke-width:0.198996;stroke-linecap:butt;stroke-linejoin:miter;stroke-miterlimit:4;stroke-dasharray:none;stroke-opacity:1"
           d="M 25.24873,22.376351 C 24.628782,26.671433 10.417902,27.117946 8.5336866,22.507824 L 8.4666694,25.4 C 9.6461674,31.550332 25.10711,30.545512 25.4,25.4 Z"
           id="path888"
           sodipodi:nodetypes="ccccc" />
        <path
           id="path848"
           style="fill:#aaaaaa;fill-opacity:0.8;stroke:none;stroke-width:0.198996;stroke-linecap:round;stroke-linejoin:round;stroke-miterlimit:4;stroke-dasharray:none"
           d="m 25.4,21.695837 c 0,2.206072 -3.724722,4.169111 -8.336212,4.169112 -4.611492,0 -8.6153892,-1.951323 -8.6153889,-4.157396 8e-7,-2.206072 3.9008309,-4.129204 8.5123219,-4.129204 4.61149,1e-6 8.439278,1.911417 8.439279,4.117488 z"
           sodipodi:nodetypes="sssss" />
        <path
           id="path908"
           style="fill:none;stroke:#ffffff;stroke-width:0.198996;stroke-linecap:butt;stroke-linejoin:miter;stroke-miterlimit:4;stroke-dasharray:none;stroke-opacity:1"
           d="M 25.4,21.695834 V 25.4 m 0,-3.704166 c 0,1.512424 -1.613737,2.909962 -4.233333,3.666174 -2.619596,0.756212 -5.847071,0.756212 -8.466666,0 -2.619596,-0.756212 -4.2333326,-2.15375 -4.2333326,-3.666174 m 16.9330586,0.04586 c 0,-1.512424 -1.613737,-2.909962 -4.233333,-3.666174 -2.619596,-0.756212 -5.847071,-0.756212 -8.466666,0 -2.619596,0.756212 -4.2333326,2.15375 -4.2333326,3.666174 M 25.4,25.4 c 0,1.512424 -1.613737,2.909962 -4.233333,3.666174 -2.619596,0.756212 -5.847071,0.756212 -8.466666,0 C 10.080405,28.309962 8.4666684,26.912424 8.4666684,25.4 l -1.6e-6,-3.704166 v 0"
           sodipodi:nodetypes="cccssccssccssscc" />
      </g>
      <g
         id="g883"
         transform="matrix(0.75877944,0,0,0.75877944,4.0848228,1.4399915)"
         style="stroke-width:1.00282">
        <path
           id="path869"
           style="fill:none;fill-opacity:0.8;stroke:#ffffff;stroke-width:0.198996;stroke-linecap:round;stroke-linejoin:round;stroke-miterlimit:4;stroke-dasharray:none;stroke-opacity:1"
           d="m 25.4,25.4 c 0,-1.512424 -1.613737,-2.909962 -4.233333,-3.666174 -2.619596,-0.756212 -5.847071,-0.756212 -8.466666,0 C 10.080405,22.490038 8.4666684,23.887576 8.4666684,25.4"
           sodipodi:nodetypes="cssc" />
        <circle
           style="display:inline;opacity:0.998;fill:#c85eff;fill-opacity:0.6;stroke:none;stroke-width:0.198996;stroke-linecap:round;stroke-linejoin:round;stroke-miterlimit:4;stroke-dasharray:none;stroke-opacity:1"
           id="circle871"
           cx="3.2074656"
           cy="29.563335"
           r="0"
           inkscape:export-xdpi="94.523079"
           inkscape:export-ydpi="94.523079" />
        <circle
           style="display:inline;opacity:0.998;fill:#c85eff;fill-opacity:0.6;stroke:none;stroke-width:0.198996;stroke-linecap:round;stroke-linejoin:round;stroke-miterlimit:4;stroke-dasharray:none;stroke-opacity:1"
           id="circle873"
           cx="3.2074656"
           cy="29.563335"
           r="0"
           inkscape:export-xdpi="94.523079"
           inkscape:export-ydpi="94.523079" />
        <circle
           style="display:inline;opacity:0.998;fill:#c85eff;fill-opacity:0.6;stroke:none;stroke-width:0.198996;stroke-linecap:round;stroke-linejoin:round;stroke-miterlimit:4;stroke-dasharray:none;stroke-opacity:1"
           id="circle875"
           cx="3.2074656"
           cy="29.563335"
           r="0"
           inkscape:export-xdpi="94.523079"
           inkscape:export-ydpi="94.523079" />
        <path
           style="fill:url(#linearGradient885);fill-opacity:1;stroke:none;stroke-width:0.198996;stroke-linecap:butt;stroke-linejoin:miter;stroke-miterlimit:4;stroke-dasharray:none;stroke-opacity:1"
           d="M 25.24873,22.376351 C 24.628782,26.671433 10.417902,27.117946 8.5336866,22.507824 L 8.4666694,25.4 C 9.6461674,31.550332 25.10711,30.545512 25.4,25.4 Z"
           id="path877"
           sodipodi:nodetypes="ccccc" />
        <path
           id="path879"
           style="fill:#aaaaaa;fill-opacity:0.8;stroke:none;stroke-width:0.198996;stroke-linecap:round;stroke-linejoin:round;stroke-miterlimit:4;stroke-dasharray:none"
           d="m 25.4,21.695837 c 0,2.206072 -3.724722,4.169111 -8.336212,4.169112 -4.611492,0 -8.6153892,-1.951323 -8.6153889,-4.157396 8e-7,-2.206072 3.9008309,-4.129204 8.5123219,-4.129204 4.61149,1e-6 8.439278,1.911417 8.439279,4.117488 z"
           sodipodi:nodetypes="sssss" />
        <path
           id="path881"
           style="fill:none;stroke:#ffffff;stroke-width:0.198996;stroke-linecap:butt;stroke-linejoin:miter;stroke-miterlimit:4;stroke-dasharray:none;stroke-opacity:1"
           d="M 25.4,21.695834 V 25.4 m 0,-3.704166 c 0,1.512424 -1.613737,2.909962 -4.233333,3.666174 -2.619596,0.756212 -5.847071,0.756212 -8.466666,0 -2.619596,-0.756212 -4.2333326,-2.15375 -4.2333326,-3.666174 m 16.9330586,0.04586 c 0,-1.512424 -1.613737,-2.909962 -4.233333,-3.666174 -2.619596,-0.756212 -5.847071,-0.756212 -8.466666,0 -2.619596,0.756212 -4.2333326,2.15375 -4.2333326,3.666174 M 25.4,25.4 c 0,1.512424 -1.613737,2.909962 -4.233333,3.666174 -2.619596,0.756212 -5.847071,0.756212 -8.466666,0 C 10.080405,28.309962 8.4666684,26.912424 8.4666684,25.4 l -1.6e-6,-3.704166 v 0"
           sodipodi:nodetypes="cccssccssccssscc" />
      </g>
      <g
         id="g876"
         transform="matrix(0.75877944,0,0,0.75877944,4.0847712,-2.9406777)"
         style="stroke-width:1.00282">
        <path
           id="path861"
           style="fill:none;fill-opacity:0.8;stroke:#ffffff;stroke-width:0.198996;stroke-linecap:round;stroke-linejoin:round;stroke-miterlimit:4;stroke-dasharray:none;stroke-opacity:1"
           d="m 25.4,25.4 c 0,-1.512424 -1.613737,-2.909962 -4.233333,-3.666174 -2.619596,-0.756212 -5.847071,-0.756212 -8.466666,0 C 10.080405,22.490038 8.4666684,23.887576 8.4666684,25.4"
           sodipodi:nodetypes="cssc" />
        <circle
           style="display:inline;opacity:0.998;fill:#c85eff;fill-opacity:0.6;stroke:none;stroke-width:0.198996;stroke-linecap:round;stroke-linejoin:round;stroke-miterlimit:4;stroke-dasharray:none;stroke-opacity:1"
           id="circle863"
           cx="3.2074656"
           cy="29.563335"
           r="0"
           inkscape:export-xdpi="94.523079"
           inkscape:export-ydpi="94.523079" />
        <circle
           style="display:inline;opacity:0.998;fill:#c85eff;fill-opacity:0.6;stroke:none;stroke-width:0.198996;stroke-linecap:round;stroke-linejoin:round;stroke-miterlimit:4;stroke-dasharray:none;stroke-opacity:1"
           id="circle865"
           cx="3.2074656"
           cy="29.563335"
           r="0"
           inkscape:export-xdpi="94.523079"
           inkscape:export-ydpi="94.523079" />
        <circle
           style="display:inline;opacity:0.998;fill:#c85eff;fill-opacity:0.6;stroke:none;stroke-width:0.198996;stroke-linecap:round;stroke-linejoin:round;stroke-miterlimit:4;stroke-dasharray:none;stroke-opacity:1"
           id="circle867"
           cx="3.2074656"
           cy="29.563335"
           r="0"
           inkscape:export-xdpi="94.523079"
           inkscape:export-ydpi="94.523079" />
        <path
           style="fill:url(#linearGradient878);fill-opacity:1;stroke:none;stroke-width:0.198996;stroke-linecap:butt;stroke-linejoin:miter;stroke-miterlimit:4;stroke-dasharray:none;stroke-opacity:1"
           d="M 25.24873,22.376351 C 24.628782,26.671433 10.417902,27.117946 8.5336866,22.507824 L 8.4666694,25.4 C 9.6461674,31.550332 25.10711,30.545512 25.4,25.4 Z"
           id="path870"
           sodipodi:nodetypes="ccccc" />
        <path
           id="path872"
           style="fill:#aaaaaa;fill-opacity:0.8;stroke:none;stroke-width:0.198996;stroke-linecap:round;stroke-linejoin:round;stroke-miterlimit:4;stroke-dasharray:none"
           d="m 25.4,21.695837 c 0,2.206072 -3.724722,4.169111 -8.336212,4.169112 -4.611492,0 -8.6153892,-1.951323 -8.6153889,-4.157396 8e-7,-2.206072 3.9008309,-4.129204 8.5123219,-4.129204 4.61149,1e-6 8.439278,1.911417 8.439279,4.117488 z"
           sodipodi:nodetypes="sssss" />
        <path
           id="path874"
           style="fill:none;stroke:#ffffff;stroke-width:0.198996;stroke-linecap:butt;stroke-linejoin:miter;stroke-miterlimit:4;stroke-dasharray:none;stroke-opacity:1"
           d="M 25.4,21.695834 V 25.4 m 0,-3.704166 c 0,1.512424 -1.613737,2.909962 -4.233333,3.666174 -2.619596,0.756212 -5.847071,0.756212 -8.466666,0 -2.619596,-0.756212 -4.2333326,-2.15375 -4.2333326,-3.666174 m 16.9330586,0.04586 c 0,-1.512424 -1.613737,-2.909962 -4.233333,-3.666174 -2.619596,-0.756212 -5.847071,-0.756212 -8.466666,0 -2.619596,0.756212 -4.2333326,2.15375 -4.2333326,3.666174 M 25.4,25.4 c 0,1.512424 -1.613737,2.909962 -4.233333,3.666174 -2.619596,0.756212 -5.847071,0.756212 -8.466666,0 C 10.080405,28.309962 8.4666684,26.912424 8.4666684,25.4 l -1.6e-6,-3.704166 v 0"
           sodipodi:nodetypes="cccssccssccssscc" />
      </g>
    </g>
  </g>
</svg>
