<?xml version="1.0" encoding="UTF-8" standalone="no"?>
<svg
   width="120"
   height="120"
   viewBox="0 0 31.75 31.75"
   version="1.1"
   id="svg8"
   inkscape:version="1.1.2 (0a00cf5339, 2022-02-04)"
   sodipodi:docname="button_normal.svg"
   xmlns:inkscape="http://www.inkscape.org/namespaces/inkscape"
   xmlns:sodipodi="http://sodipodi.sourceforge.net/DTD/sodipodi-0.dtd"
   xmlns="http://www.w3.org/2000/svg"
   xmlns:svg="http://www.w3.org/2000/svg"
   xmlns:rdf="http://www.w3.org/1999/02/22-rdf-syntax-ns#"
   xmlns:cc="http://creativecommons.org/ns#"
   xmlns:dc="http://purl.org/dc/elements/1.1/">
  <style
     id="style10" />
  <defs
     id="defs2" />
  <sodipodi:namedview
     id="base"
     pagecolor="#ffffff"
     bordercolor="#666666"
     borderopacity="1.0"
     inkscape:pageopacity="0.0"
     inkscape:pageshadow="2"
     inkscape:zoom="4"
     inkscape:cx="11.875"
     inkscape:cy="29.375"
     inkscape:document-units="px"
     inkscape:current-layer="g841"
     inkscape:document-rotation="0"
     showgrid="true"
     units="px"
     inkscape:window-width="2560"
     inkscape:window-height="963"
     inkscape:window-x="0"
     inkscape:window-y="326"
     inkscape:window-maximized="1"
     inkscape:pagecheckerboard="0">
    <sodipodi:guide
       position="0,67.733332"
       orientation="0,256"
       id="guide22" />
    <sodipodi:guide
       position="67.733332,67.733332"
       orientation="256,0"
       id="guide24" />
    <sodipodi:guide
       position="60.325,0"
       orientation="0,-256"
       id="guide26" />
    <sodipodi:guide
       position="0,0"
       orientation="-256,0"
       id="guide28" />
    <inkscape:grid
       type="xygrid"
       id="grid869"
       dotted="true"
       spacingx="1.5875"
       spacingy="1.5875"
       snapvisiblegridlinesonly="false" />
  </sodipodi:namedview>
  <metadata
     id="metadata5">
    <rdf:RDF>
      <cc:Work
         rdf:about="">
        <dc:format>image/svg+xml</dc:format>
        <dc:type
           rdf:resource="http://purl.org/dc/dcmitype/StillImage" />
      </cc:Work>
    </rdf:RDF>
  </metadata>
  <g
     inkscape:label="Layer 1"
     inkscape:groupmode="layer"
     id="layer1">
    <g
       id="g841"
       transform="matrix(2.1538598,0,0,2.1538608,-1.2211722,-1.2212256)"
       style="stroke-width:0.464282">
      <g
         id="g884"
         transform="matrix(0.96666514,0,0,0.96656293,0.26459406,0.26540605)">
        <g
           id="g842"
           transform="matrix(0.98765435,0,0,0.98765435,0.09799321,0.09799331)">
          <g
             id="g836">
            <path
               style="fill:#333333;fill-opacity:1;stroke:none;stroke-width:0.122841px;stroke-linecap:butt;stroke-linejoin:miter;stroke-opacity:1"
               d="M 1.3040182,1.3040416 H 14.570898 V 14.570917 H 1.3040182 Z"
               id="path6527" />
            <path
               id="path909"
               style="fill:none;stroke:#000000;stroke-width:0.184262;stroke-linecap:round;stroke-linejoin:round;stroke-miterlimit:4;stroke-dasharray:none;stroke-opacity:1"
               d="M 1.3040181,0.56699374 0.56696921,1.3040423 v 3.6852429 9.5816318 l 0.73704889,0.737048 h 1.4740977 6.63344 5.1593422 l 0.737049,-0.737048 V 10.885674 1.3040423 L 14.570898,0.56699374 H 9.4115558 Z M 4.2522137,1.3040423 h 5.1593421 4.4222932 l 0.737049,0.7370486 v 1.4740972 7.3704859 l -0.737049,0.737048 v 1.474098 0.737048 L 13.0968,14.570917 H 12.359751 9.4115558 L 2.041067,14.570916 1.3040181,13.833868 V 5.7263338 2.7781395 L 2.041067,2.0410909 h 1.4740978 z"
               sodipodi:nodetypes="ccccccccccccccccccccccccccccccccc" />
            <path
               style="font-variation-settings:normal;opacity:1;vector-effect:none;fill:#66666f;fill-opacity:1;stroke:#8b8585;stroke-width:0.999996;stroke-linecap:round;stroke-linejoin:round;stroke-miterlimit:4;stroke-dasharray:none;stroke-dashoffset:0;stroke-opacity:1;-inkscape-stroke:none;stop-color:#000000;stop-opacity:1"
               d="M 3.558422,116.30859 0.75,113.49218 V 59.99201 6.491844 L 3.5664118,3.683422 6.3828235,0.875 H 60.00799 113.63316 l 2.80842,2.8164118 2.80842,2.8164117 V 60.00799 113.50816 l -2.81641,2.80842 -2.81641,2.80842 H 59.99201 6.366844 Z M 105.55903,111.69111 108.75,108.50722 V 99.4997 90.492185 l 3,-2.992185 3,-2.992185 V 48.007385 11.506952 L 111.56611,8.315976 108.38222,5.125 H 68.9997 29.617185 l -2.992185,3 -2.992184,3 H 17.632384 11.631952 L 8.440976,14.308893 5.25,17.492786 v 45.500131 45.500133 l 3.183893,3.19098 3.183893,3.19097 h 45.375131 45.375133 z"
               id="path19924"
               transform="matrix(0.12284148,0,0,0.12284143,0.56696921,0.56699374)" />
          </g>
        </g>
      </g>
    </g>
  </g>
  <style
     id="style837" />
</svg>
