<?xml version="1.0" encoding="UTF-8" standalone="no"?>
<svg
   xmlns:dc="http://purl.org/dc/elements/1.1/"
   xmlns:cc="http://creativecommons.org/ns#"
   xmlns:rdf="http://www.w3.org/1999/02/22-rdf-syntax-ns#"
   xmlns:svg="http://www.w3.org/2000/svg"
   xmlns="http://www.w3.org/2000/svg"
   xmlns:sodipodi="http://sodipodi.sourceforge.net/DTD/sodipodi-0.dtd"
   xmlns:inkscape="http://www.inkscape.org/namespaces/inkscape"
   inkscape:export-ydpi="94.519997"
   inkscape:export-xdpi="94.519997"
   inkscape:export-filename="/home/ehmprah/dev/blacken-slash/assets/floor.png"
   sodipodi:docname="exit.svg"
   inkscape:version="1.0.2 (e86c870879, 2021-01-15)"
   id="svg8"
   version="1.1"
   viewBox="0 0 33.866666 33.866668"
   height="128"
   width="128">
  <defs
     id="defs2">
    <pattern
       patternUnits="userSpaceOnUse"
       width="28.000018"
       height="48.999999"
       patternTransform="translate(-62.098896,46.38257)"
       id="pattern855">
      <path
         d="m 13.990001,9.2500006 13.000001,7.5000004 v 15 l -13.000001,7.5 -12.9899985,-7.5 v -15 z M 3,17.900001 V 30.6 l 10.990001,6.339999 11.000001,-6.35 V 17.900001 L 13.990001,11.559999 Z M 0,15 12.980001,7.5 V 0 H 10.98 V 6.3499994 L 0,12.690002 v 2.299997 z m 0,18.500001 12.980001,7.5 v 7.999998 H 10.98 V 42.149998 L 0,35.809999 V 33.510002 Z M 15,0 V 7.5 L 27.990002,15 h 0.01002 v -2.309998 h -0.01002 L 17.000001,6.3499994 V 0 Z m 0,48.999999 v -7.999998 l 12.990002,-7.5 h 0.01002 v 2.309998 h -0.01002 l -10.990001,6.339999 v 6.850001 z"
         id="path838"
         style="fill:#000000;fill-rule:nonzero;stroke-width:0.999999" />
    </pattern>
    <pattern
       patternUnits="userSpaceOnUse"
       width="28.000018"
       height="48.999999"
       patternTransform="translate(-62.098896,46.38257)"
       id="pattern855-6">
      <path
         d="m 13.990001,9.2500006 13.000001,7.5000004 v 15 l -13.000001,7.5 -12.9899985,-7.5 v -15 z M 3,17.900001 V 30.6 l 10.990001,6.339999 11.000001,-6.35 V 17.900001 L 13.990001,11.559999 Z M 0,15 12.980001,7.5 V 0 H 10.98 V 6.3499994 L 0,12.690002 v 2.299997 z m 0,18.500001 12.980001,7.5 v 7.999998 H 10.98 V 42.149998 L 0,35.809999 V 33.510002 Z M 15,0 V 7.5 L 27.990002,15 h 0.01002 v -2.309998 h -0.01002 L 17.000001,6.3499994 V 0 Z m 0,48.999999 v -7.999998 l 12.990002,-7.5 h 0.01002 v 2.309998 h -0.01002 l -10.990001,6.339999 v 6.850001 z"
         id="path838-7"
         style="fill:#000000;fill-rule:nonzero;stroke-width:0.999999" />
    </pattern>
    <pattern
       patternUnits="userSpaceOnUse"
       width="129.99975"
       height="65.999978"
       patternTransform="translate(-120.99988,-32.999989)"
       id="pattern1829">
      <path
         style="display:inline;fill:none;fill-opacity:1;stroke:#000000;stroke-width:2;stroke-linecap:round;stroke-linejoin:round;stroke-miterlimit:4;stroke-dasharray:none;stroke-opacity:1"
         d="M 0.99987706,32.999989 64.99988,0.99998882 128.99987,32.999989 l -63.99999,32 z"
         id="path7178-5" />
    </pattern>
    <pattern
       patternUnits="userSpaceOnUse"
       width="129.99975"
       height="65.999978"
       patternTransform="translate(-120.99988,-32.999989)"
       id="pattern1829-5">
      <path
         style="display:inline;fill:none;fill-opacity:1;stroke:#000000;stroke-width:2;stroke-linecap:round;stroke-linejoin:round;stroke-miterlimit:4;stroke-dasharray:none;stroke-opacity:1"
         d="M 0.99987706,32.999989 64.99988,0.99998882 128.99987,32.999989 l -63.99999,32 z"
         id="path7178-5-6" />
    </pattern>
    <pattern
       patternUnits="userSpaceOnUse"
       width="130.99963"
       height="66.999966"
       patternTransform="translate(-169.49982,14.500018)"
       id="pattern1867">
      <path
         style="display:inline;fill:none;fill-opacity:1;stroke:#000000;stroke-width:3;stroke-linecap:round;stroke-linejoin:round;stroke-miterlimit:4;stroke-dasharray:none;stroke-opacity:1"
         d="M 1.4998146,33.499982 65.499817,1.4999823 129.49981,33.499982 65.499817,65.499983 Z"
         id="path7178-2" />
    </pattern>
  </defs>
  <sodipodi:namedview
     id="base"
     pagecolor="#999999"
     bordercolor="#666666"
     borderopacity="1.0"
     inkscape:pageopacity="0"
     inkscape:pageshadow="2"
     inkscape:zoom="8.9382721"
     inkscape:cx="58.557192"
     inkscape:cy="80.869303"
     inkscape:document-units="px"
     inkscape:current-layer="layer1"
     inkscape:document-rotation="0"
     showgrid="true"
     units="px"
     inkscape:window-width="2560"
     inkscape:window-height="1003"
     inkscape:window-x="1920"
     inkscape:window-y="0"
     inkscape:window-maximized="1">
    <inkscape:grid
       type="xygrid"
       id="grid7161"
       dotted="true"
       spacingx="2.1166667"
       spacingy="2.1166667" />
  </sodipodi:namedview>
  <metadata
     id="metadata5">
    <rdf:RDF>
      <cc:Work
         rdf:about="">
        <dc:format>image/svg+xml</dc:format>
        <dc:type
           rdf:resource="http://purl.org/dc/dcmitype/StillImage" />
        <dc:title></dc:title>
      </cc:Work>
    </rdf:RDF>
  </metadata>
  <g
     inkscape:label="Layer 1"
     inkscape:groupmode="layer"
     id="layer1"
     style="display:inline">
    <g
       id="g862"
       transform="matrix(0.80769232,0,0,0.80769232,3.2381733,4.8347239)">
      <circle
         style="display:inline;opacity:0.998;fill:#c85eff;fill-opacity:0.6;stroke:none;stroke-width:0.529167;stroke-linecap:round;stroke-linejoin:round;stroke-miterlimit:4;stroke-dasharray:none;stroke-opacity:1"
         id="path2034-7"
         cx="-32.230061"
         cy="31.518488"
         r="0"
         inkscape:export-xdpi="94.523079"
         inkscape:export-ydpi="94.523079" />
      <circle
         style="display:inline;opacity:0.998;fill:#c85eff;fill-opacity:0.6;stroke:none;stroke-width:0.529167;stroke-linecap:round;stroke-linejoin:round;stroke-miterlimit:4;stroke-dasharray:none;stroke-opacity:1"
         id="path2034-5"
         cx="-32.230061"
         cy="31.518488"
         r="0"
         inkscape:export-xdpi="94.523079"
         inkscape:export-ydpi="94.523079" />
      <circle
         style="display:inline;opacity:0.998;fill:#c85eff;fill-opacity:0.6;stroke:none;stroke-width:0.529167;stroke-linecap:round;stroke-linejoin:round;stroke-miterlimit:4;stroke-dasharray:none;stroke-opacity:1"
         id="path2034-3"
         cx="-32.230061"
         cy="31.518488"
         r="0"
         inkscape:export-xdpi="94.523079"
         inkscape:export-ydpi="94.523079" />
      <g
         id="g1009"
         transform="matrix(0.47560976,0.23780488,-0.47560976,0.23780488,49.147969,39.507735)"
         style="fill:#ffffff;fill-opacity:1">
        <path
           id="path999"
           style="color:#000000;font-style:normal;font-variant:normal;font-weight:normal;font-stretch:normal;font-size:medium;line-height:normal;font-family:sans-serif;font-variant-ligatures:normal;font-variant-position:normal;font-variant-caps:normal;font-variant-numeric:normal;font-variant-alternates:normal;font-variant-east-asian:normal;font-feature-settings:normal;font-variation-settings:normal;text-indent:0;text-align:start;text-decoration:none;text-decoration-line:none;text-decoration-style:solid;text-decoration-color:#000000;letter-spacing:normal;word-spacing:normal;text-transform:none;writing-mode:lr-tb;direction:ltr;text-orientation:mixed;dominant-baseline:auto;baseline-shift:baseline;text-anchor:start;white-space:normal;shape-padding:0;shape-margin:0;inline-size:0;clip-rule:nonzero;display:inline;overflow:visible;visibility:visible;opacity:1;isolation:auto;mix-blend-mode:normal;color-interpolation:sRGB;color-interpolation-filters:linearRGB;solid-color:#000000;solid-opacity:1;vector-effect:none;fill:#ffffff;fill-opacity:1;fill-rule:nonzero;stroke:none;stroke-width:3.77953;stroke-linecap:butt;stroke-linejoin:miter;stroke-miterlimit:4;stroke-dasharray:none;stroke-dashoffset:0;stroke-opacity:1;color-rendering:auto;image-rendering:auto;shape-rendering:auto;text-rendering:auto;enable-background:accumulate;stop-color:#000000;stop-opacity:1"
           d="m -249.05273,-36.208984 c -21.97342,3.802578 -39.36053,21.184306 -43.16407,43.1542965 l 9.73047,2.4335937 c 2.83828,-18.4873074 17.37442,-33.0367712 35.86133,-35.8769532 z m 18.10546,0 -2.42773,9.710937 c 18.48691,2.840182 33.02305,17.389646 35.86133,35.8769532 l 9.73047,-2.4335937 c -3.80354,-21.9699895 -21.19065,-39.3517185 -43.16407,-43.1542965 z m -51.53906,58.830078 -9.73047,2.433594 c 3.80625,21.967212 21.19328,39.349027 43.16407,43.152343 l 2.42773,-9.708984 c -18.48444,-2.840949 -33.02023,-17.39217 -35.86133,-35.876953 z m 84.98047,0.002 c -2.84068,18.48531 -17.38701,33.025856 -35.87109,35.867187 l 2.42968,9.722657 c 21.96898,-3.803833 39.35319,-21.189117 43.15821,-43.160157 z"
           transform="scale(0.26458334)" />
        <path
           style="display:inline;fill:#ffffff;fill-opacity:1;stroke:none;stroke-width:0.165365px;stroke-linecap:butt;stroke-linejoin:miter;stroke-opacity:1"
           d="m -60.854169,-14.816667 -2.645833,10.5833336 -2.645834,-10.5833336 z"
           id="path1001" />
        <path
           style="display:inline;fill:#ffffff;fill-opacity:1;stroke:none;stroke-width:0.165365px;stroke-linecap:butt;stroke-linejoin:miter;stroke-opacity:1"
           d="M -44.45,6.8791664 -55.033335,4.2333334 -44.45,1.5874994 Z"
           id="path1003" />
        <path
           style="display:inline;fill:#ffffff;fill-opacity:1;stroke:none;stroke-width:0.165365px;stroke-linecap:butt;stroke-linejoin:miter;stroke-opacity:1"
           d="M -66.145835,23.283335 -63.500002,12.7 l 2.645834,10.583335 z"
           id="path1005" />
        <path
           style="display:inline;fill:#ffffff;fill-opacity:1;stroke:none;stroke-width:0.165365px;stroke-linecap:butt;stroke-linejoin:miter;stroke-opacity:1"
           d="m -82.550004,6.8791664 10.583335,-2.645833 -10.583335,-2.645834 z"
           id="path1007" />
      </g>
      <ellipse
         style="fill:#ffffff;stroke-width:2.43717;stop-color:#000000"
         id="path850"
         cx="16.933334"
         cy="25.405315"
         rx="5.0357499"
         ry="2.2646925" />
    </g>
  </g>
</svg>
