<?xml version="1.0" encoding="UTF-8" standalone="no"?>
<svg
   inkscape:export-ydpi="96"
   inkscape:export-xdpi="96"
   inkscape:export-filename="/home/ehmprah/dev/paint-it-black/assets/cylinder.png"
   sodipodi:docname="random_enemy.svg"
   inkscape:version="1.1.1 (3bf5ae0d25, 2021-09-20)"
   id="svg8"
   version="1.1"
   viewBox="0 0 33.866666 33.866668"
   height="128"
   width="128"
   xmlns:inkscape="http://www.inkscape.org/namespaces/inkscape"
   xmlns:sodipodi="http://sodipodi.sourceforge.net/DTD/sodipodi-0.dtd"
   xmlns="http://www.w3.org/2000/svg"
   xmlns:svg="http://www.w3.org/2000/svg"
   xmlns:rdf="http://www.w3.org/1999/02/22-rdf-syntax-ns#"
   xmlns:cc="http://creativecommons.org/ns#"
   xmlns:dc="http://purl.org/dc/elements/1.1/">
  <defs
     id="defs2" />
  <sodipodi:namedview
     id="base"
     pagecolor="#999999"
     bordercolor="#666666"
     borderopacity="1.0"
     inkscape:pageopacity="1"
     inkscape:pageshadow="2"
     inkscape:zoom="4.4691359"
     inkscape:cx="7.7196131"
     inkscape:cy="91.404694"
     inkscape:document-units="px"
     inkscape:current-layer="layer1"
     inkscape:document-rotation="0"
     showgrid="true"
     units="px"
     inkscape:window-width="2560"
     inkscape:window-height="1003"
     inkscape:window-x="0"
     inkscape:window-y="309"
     inkscape:window-maximized="1"
     inkscape:pagecheckerboard="0">
    <inkscape:grid
       type="xygrid"
       id="grid7161"
       dotted="true"
       spacingx="2.1166667"
       spacingy="2.1166667"
       snapvisiblegridlinesonly="true"
       enabled="true" />
  </sodipodi:namedview>
  <metadata
     id="metadata5">
    <rdf:RDF>
      <cc:Work
         rdf:about="">
        <dc:format>image/svg+xml</dc:format>
        <dc:type
           rdf:resource="http://purl.org/dc/dcmitype/StillImage" />
      </cc:Work>
    </rdf:RDF>
  </metadata>
  <g
     inkscape:label="Layer 1"
     inkscape:groupmode="layer"
     id="layer1"
     style="display:inline">
    <circle
       style="display:inline;opacity:0.998;fill:#c85eff;fill-opacity:0.6;stroke:none;stroke-width:0.48597;stroke-linecap:round;stroke-linejoin:round;stroke-miterlimit:4;stroke-dasharray:none;stroke-opacity:1"
       id="path2034-7"
       cx="-32.474575"
       cy="24.074509"
       r="0"
       inkscape:export-xdpi="94.523079"
       inkscape:export-ydpi="94.523079" />
    <circle
       style="display:inline;opacity:0.998;fill:#c85eff;fill-opacity:0.6;stroke:none;stroke-width:0.48597;stroke-linecap:round;stroke-linejoin:round;stroke-miterlimit:4;stroke-dasharray:none;stroke-opacity:1"
       id="path2034-5"
       cx="-32.474575"
       cy="24.074509"
       r="0"
       inkscape:export-xdpi="94.523079"
       inkscape:export-ydpi="94.523079" />
    <circle
       style="display:inline;opacity:0.998;fill:#c85eff;fill-opacity:0.6;stroke:none;stroke-width:0.48597;stroke-linecap:round;stroke-linejoin:round;stroke-miterlimit:4;stroke-dasharray:none;stroke-opacity:1"
       id="path2034-3"
       cx="-32.474575"
       cy="24.074509"
       r="0"
       inkscape:export-xdpi="94.523079"
       inkscape:export-ydpi="94.523079" />
    <path
       style="fill:none;fill-opacity:1;stroke:#ffffff;stroke-width:0.48597;stroke-linecap:round;stroke-linejoin:round;stroke-miterlimit:4;stroke-dasharray:none;stroke-opacity:1"
       d="M 5.2700614,25.4 16.933334,31.231636 28.596606,25.4 16.933334,19.568364 Z"
       id="path917" />
    <g
       style="fill:#000000;stroke:none"
       id="g2077"
       transform="matrix(0.13364105,-0.06682053,0.13364105,0.06682053,-0.17272075,24.280131)">
      <path
         d="m 64.000006,23.395775 c -22.41353,0 -40.60423,18.190692 -40.60423,40.604222 0,22.413531 18.1907,40.604223 40.60423,40.604223 22.413527,0 40.604214,-18.190692 40.604214,-40.604223 0,-22.41353 -18.190687,-40.604222 -40.604214,-40.604222 z m 4.06042,69.027179 h -8.12085 v -8.120846 h 8.12085 z m 8.40507,-31.468272 -3.65438,3.735587 c -2.9235,2.964109 -4.75069,5.400362 -4.75069,11.490996 h -8.12085 v -2.030211 c 0,-4.466465 1.82719,-8.526888 4.7507,-11.490995 l 5.03492,-5.116132 c 1.50236,-1.461752 2.39565,-3.491963 2.39565,-5.725195 0,-4.466465 -3.65438,-8.120845 -8.12084,-8.120845 -4.46647,0 -8.12085,3.65438 -8.12085,8.120845 h -8.12084 c 0,-8.973533 7.26815,-16.241689 16.24169,-16.241689 8.97353,0 16.24169,7.268156 16.24169,16.241689 0,3.573171 -1.46176,6.821509 -3.7762,9.13595 z"
         id="path832"
         style="font-variation-settings:normal;opacity:1;vector-effect:none;fill:#dbdbdb;fill-opacity:1;stroke:none;stroke-width:2;stroke-linecap:butt;stroke-linejoin:miter;stroke-miterlimit:4;stroke-dasharray:none;stroke-dashoffset:0;stroke-opacity:1;stop-color:#000000;stop-opacity:1" />
    </g>
    <path
       style="fill:#dbdbdb;fill-opacity:1;stroke:#dbdbdb;stroke-width:0.111878;stroke-opacity:1;paint-order:stroke fill markers;stop-color:#000000"
       d="M 43.100993,106.46624 22.151574,95.991412 43.073124,85.531116 63.994674,75.070819 84.943794,85.5452 105.89291,96.019581 84.971663,106.48033 64.050412,116.94107 Z m 23.341268,3.56343 c 10.083752,-0.48936 18.463336,-3.26018 22.991878,-7.60256 1.688053,-1.61866 2.724518,-3.231123 3.165737,-4.92504 0.280203,-1.075744 0.253754,-2.739025 -0.06138,-3.859807 -1.132235,-4.026859 -5.613918,-7.636451 -12.321651,-9.92398 -13.32128,-4.542937 -31.755528,-2.669742 -40.44406,4.109721 -2.302012,1.796207 -3.803379,3.854006 -4.369239,5.988549 -0.253407,0.955903 -0.253407,2.723142 0,3.679045 0.951632,3.589762 4.482956,6.852892 9.912614,9.159792 4.458248,1.89418 10.2143,3.1077 15.986166,3.37028 2.723562,0.1239 2.669971,0.12386 5.139931,0.004 z"
       id="path6193"
       transform="scale(0.26458334)" />
  </g>
</svg>
