<?xml version="1.0" encoding="UTF-8" standalone="no"?>
<svg
   inkscape:export-ydpi="94.523254"
   inkscape:export-xdpi="94.523254"
   inkscape:export-filename="/home/ehmprah/dev/paint-it-black/assets/highlight.png"
   sodipodi:docname="shock_mine.svg"
   inkscape:version="1.1.2 (0a00cf5339, 2022-02-04)"
   id="svg8"
   version="1.1"
   viewBox="0 0 33.866666 16.933334"
   height="64"
   width="128"
   xmlns:inkscape="http://www.inkscape.org/namespaces/inkscape"
   xmlns:sodipodi="http://sodipodi.sourceforge.net/DTD/sodipodi-0.dtd"
   xmlns="http://www.w3.org/2000/svg"
   xmlns:svg="http://www.w3.org/2000/svg"
   xmlns:rdf="http://www.w3.org/1999/02/22-rdf-syntax-ns#"
   xmlns:cc="http://creativecommons.org/ns#"
   xmlns:dc="http://purl.org/dc/elements/1.1/">
  <defs
     id="defs2" />
  <sodipodi:namedview
     id="base"
     pagecolor="#999999"
     bordercolor="#666666"
     borderopacity="1.0"
     inkscape:pageopacity="0"
     inkscape:pageshadow="2"
     inkscape:zoom="4.4691358"
     inkscape:cx="11.523481"
     inkscape:cy="23.830111"
     inkscape:document-units="px"
     inkscape:current-layer="layer1"
     inkscape:document-rotation="0"
     showgrid="true"
     units="px"
     inkscape:window-width="2560"
     inkscape:window-height="963"
     inkscape:window-x="0"
     inkscape:window-y="387"
     inkscape:window-maximized="1"
     inkscape:pagecheckerboard="0">
    <inkscape:grid
       type="xygrid"
       id="grid7161"
       dotted="true"
       spacingx="2.1166667"
       spacingy="2.1166667" />
  </sodipodi:namedview>
  <metadata
     id="metadata5">
    <rdf:RDF>
      <cc:Work
         rdf:about="">
        <dc:format>image/svg+xml</dc:format>
        <dc:type
           rdf:resource="http://purl.org/dc/dcmitype/StillImage" />
      </cc:Work>
    </rdf:RDF>
  </metadata>
  <g
     inkscape:label="Layer 1"
     inkscape:groupmode="layer"
     id="layer1"
     style="display:inline">
    <ellipse
       style="font-variation-settings:normal;vector-effect:none;fill:#f3c05e;fill-opacity:0.2;stroke:#f3c05e;stroke-width:0.369456;stroke-linecap:butt;stroke-linejoin:miter;stroke-miterlimit:4;stroke-dasharray:none;stroke-dashoffset:0;stroke-opacity:1;-inkscape-stroke:none;stop-color:#000000"
       id="ellipse3776"
       cx="16.933334"
       cy="8.4666672"
       rx="9.7371473"
       ry="4.8019214" />
    <path
       id="path853"
       style="font-variation-settings:normal;vector-effect:none;fill:#f3c05e;fill-opacity:1;stroke:#f3c05e;stroke-width:1.34052;stroke-linecap:butt;stroke-linejoin:miter;stroke-miterlimit:4;stroke-dasharray:none;stroke-dashoffset:0;stroke-opacity:1;-inkscape-stroke:none;stop-color:#000000"
       d="M 59.669922 11.443359 L 55.283203 14.326172 L 48.726562 12.773438 L 46.060547 16.138672 L 38.90625 15.525391 L 38.162109 19.123047 L 30.941406 19.494141 L 32.171875 23.060547 L 25.419922 24.388672 L 28.535156 27.65625 L 22.753906 29.841797 L 27.521484 32.570312 L 23.136719 35.453125 L 29.205078 37.4375 L 26.544922 40.804688 L 33.462891 41.900391 L 32.724609 45.498047 L 39.978516 45.623047 L 41.214844 49.1875 L 48.267578 48.332031 L 51.386719 51.599609 L 57.716797 49.828125 L 62.488281 52.552734 L 67.623047 49.996094 L 73.695312 51.978516 L 77.253906 48.826172 L 84.173828 49.919922 L 85.894531 46.404297 L 93.150391 46.527344 L 92.904297 42.912109 L 99.957031 42.054688 L 97.763672 38.605469 L 104.08984 36.832031 L 100.11133 33.804688 L 105.24023 31.246094 L 99.771484 28.869141 L 103.32617 25.714844 L 96.773438 24.160156 L 98.488281 20.644531 L 91.335938 20.029297 L 91.085938 16.414062 L 83.865234 16.78125 L 81.666016 13.333984 L 74.912109 14.660156 L 70.929688 11.636719 L 65.142578 13.820312 L 59.669922 11.443359 z M 64 14.576172 A 35.329742 17.423033 0 0 1 99.330078 32 A 35.329742 17.423033 0 0 1 64 49.423828 A 35.329742 17.423033 0 0 1 28.669922 32 A 35.329742 17.423033 0 0 1 64 14.576172 z "
       transform="scale(0.26458334)" />
    <circle
       style="display:inline;opacity:0.998;fill:#c85eff;fill-opacity:0.6;stroke:none;stroke-width:0.392233;stroke-linecap:round;stroke-linejoin:round;stroke-miterlimit:4;stroke-dasharray:none;stroke-opacity:1"
       id="path2034-7"
       cx="-53.374611"
       cy="25.553318"
       r="0"
       inkscape:export-xdpi="94.523079"
       inkscape:export-ydpi="94.523079"
       transform="scale(-1,1)" />
    <circle
       style="display:inline;opacity:0.998;fill:#c85eff;fill-opacity:0.6;stroke:none;stroke-width:0.392233;stroke-linecap:round;stroke-linejoin:round;stroke-miterlimit:4;stroke-dasharray:none;stroke-opacity:1"
       id="path2034-5"
       cx="-53.374611"
       cy="25.553318"
       r="0"
       inkscape:export-xdpi="94.523079"
       inkscape:export-ydpi="94.523079"
       transform="scale(-1,1)" />
    <circle
       style="display:inline;opacity:0.998;fill:#c85eff;fill-opacity:0.6;stroke:none;stroke-width:0.392233;stroke-linecap:round;stroke-linejoin:round;stroke-miterlimit:4;stroke-dasharray:none;stroke-opacity:1"
       id="path2034-3"
       cx="-53.374611"
       cy="25.553318"
       r="0"
       inkscape:export-xdpi="94.523079"
       inkscape:export-ydpi="94.523079"
       transform="scale(-1,1)" />
    <path
       d="M 13.200602,11.452852 12.827328,11.079578 15.813514,8.8399394 14.507058,7.5334829 C 14.29056,7.3169848 14.413748,7.201266 14.611574,7.1452782 c 0.197835,-0.055995 0.04853,-0.011208 0.07092,-0.018668 1.332586,-0.3695395 3.325865,-0.91452 5.98357,-1.6461354 l 0.373275,0.3732748 -2.986186,2.2396392 1.306458,1.3064575 c 0.182904,0.1829044 0.08586,0.3322094 -0.01493,0.3658074 l -0.08212,0.02987 C 15.22001,10.896682 13.200604,11.452859 13.200604,11.452859 Z"
       id="path1220"
       style="font-variation-settings:normal;vector-effect:none;fill:#f3c05e;fill-opacity:1;stroke-width:1.28906;stroke-linecap:butt;stroke-linejoin:miter;stroke-miterlimit:4;stroke-dasharray:none;stroke-dashoffset:0;stroke-opacity:1;-inkscape-stroke:none;stop-color:#000000" />
  </g>
</svg>
